<svg xmlns="http://www.w3.org/2000/svg" viewBox="0 0 192.9 60.52"><defs><style>.cls-1{fill:#ec6545;}.cls-2{fill:#fff;}</style></defs><title>资源 1</title><g id="图层_2" data-name="图层 2"><g id="图层_1-2" data-name="图层 1"><rect class="cls-1" width="192.9" height="60.52" rx="15.39" ry="15.39"/><path class="cls-2" d="M11.72,31.58q-.55-.92,2.83.16Q16,33,15,34.36q-.91.21-2.8-2.2C11.95,31.85,11.8,31.66,11.72,31.58Zm5.75,1.8a1.34,1.34,0,0,1,.81-.78q.34.12,0,.79a77.35,77.35,0,0,0-4,10.13c-.24.9-.4,1.35-.48,1.35a4.2,4.2,0,0,1-2-3.32.74.74,0,0,1,.35-.33Q13.62,40,17.47,33.38Zm-3.15-8q-.88-1.49,2.84-.06,1.56,1.5.18,2.72-.57.22-2.46-2A7,7,0,0,0,14.33,25.39ZM28,25.63q.69-.78,3,1.41.67.58-.48,1.47a1.29,1.29,0,0,1-.46.45,10.12,10.12,0,0,0-1.53,3,19.47,19.47,0,0,1-2.36,5.17,25.14,25.14,0,0,0,4.36,3.7,17.56,17.56,0,0,0,5.18,2q1.58.37,1.24.59a18.32,18.32,0,0,1-4.32.49,7.71,7.71,0,0,1-3.17-.28q-.79-.24-4.33-5.29a15,15,0,0,1-3.34,2.78,16.75,16.75,0,0,1-4,1.52q-3.07.51-1.47-.37a19.42,19.42,0,0,0,7.92-5.42q-3.08-5.27-4.54-6.09c-.45-.39-.59-.65-.44-.8a3.32,3.32,0,0,1,1.58.25q1.57,1,4.21,5.51a21.36,21.36,0,0,0,2.63-7.89q-.34-.23-3.3.51-3.3.85-3.86.5a5.49,5.49,0,0,1-1.46-.82c0-.23.42-.37,1.25-.43A17.44,17.44,0,0,0,28,25.63ZM17.44,9.69,17.38,13a1.53,1.53,0,0,1,1.49-.88q1.7,0,1.66,2.41l-.07,3.74h-.68l.07-3.85q0-1.47-1.22-1.49t-1.28,1.9l-.06,3.4h-.68l.15-8.5Zm7.78,8.64v-.68a2.15,2.15,0,0,1-1.71.76q-1.81-.14-1.87-3.21.16-2.94,2-3a2.05,2.05,0,0,1,1.68.94l0-.91H26L25.92,17l0,1.36Zm.05-3.06q0-2.27-1.55-2.29-1.36,0-1.4,2.24,0,2.49,1.32,2.52T25.27,15.27ZM22.53,10l.91,0,1,1.83h-.57ZM28,15l-.06,3.4h-.68l.08-4.65V13a3.31,3.31,0,0,1-.1-.57H28v.68a1.53,1.53,0,0,1,1.49-.88q1.7,0,1.77,2.41l-.07,3.74h-.79l.07-3.85q0-1.47-1.11-1.49Q28,13,28,15Z"/><path class="cls-2" d="M54.49,29.95q2.49.27,2.91,2.2A14.09,14.09,0,0,0,53.49,35a2.58,2.58,0,0,1,.77,1.37q1.13-.09,3.64-.5a18.54,18.54,0,0,1,3.86-.39q3.39.74,2.69,2a3,3,0,0,1-2.16.19,36.89,36.89,0,0,0-7.7-.25,19.64,19.64,0,0,1,.34,6.69q-.52,3.62-2.23,4.38-.34.22-1.23-.82A6.71,6.71,0,0,0,50,46.19a3.53,3.53,0,0,1-1.12-.81c0-.15.3-.15.91,0h.34a4.49,4.49,0,0,0,2,0q.8-.21,1.07-2.7a18.64,18.64,0,0,0-.14-5.22,78.2,78.2,0,0,0-9.32,1.65,5.61,5.61,0,0,1-.68.1,3,3,0,0,1-1.69-.82q-.78-.58-.21-.68,3.86-.16,11.7-1.16a2.51,2.51,0,0,0-1.22-1.72q-.67-.46-.21-.68a3.55,3.55,0,0,1,1.47.48q2-3.14,1.53-3.49T49,33q-1.8-.71-1.56-1.5A19.2,19.2,0,0,0,54.49,29.95Zm5.07-4.45q.8-.21,2.81,1.3,1.45,1.39.76,1.71a8.15,8.15,0,0,1-.91.32,10,10,0,0,0-2.39.64c-.69.29-1.07.4-1.14.32s0-.38.36-.9q.82-1.57.37-1.92-1.58-.25-13,1.7-.61,2.6-1.76,3.26-.8.44-1.14.21t-.2-1.25a2.52,2.52,0,0,1,.35-.67,9.6,9.6,0,0,0,1.42-3.26q0-.91.47-.79a3.18,3.18,0,0,1,1,1.49Q57.73,26.15,59.55,25.5ZM50,18.76V18l2.8-4.37-2.72,0v-.68l3.63.06v.68L51,18l2.72,0v.79Zm1.3,3.65a3.51,3.51,0,0,1,3.16,1.08q.52,2.5-1.06,2Q50.19,22.85,51.33,22.41Zm2.59-11.86.91,0,1,1.83h-.57Zm1.44,8.3h-.68l.1-5.89h.68Z"/><path class="cls-2" d="M86.87,25.64q.91-.21,2.82,1,1.46.93.88,1.49-1,.78-2.81,5.28-.48,1.24-.71,1.8-.95,2.14-2.39.75l-.22-.23L82,35.87l-.17,3.51q1.48-.31,2.62-.63,2-.19,2.25.95a9.36,9.36,0,0,1-3.19.74l-1.71.31-.17,3.17q7.6-.55,8.85-.53,3.39.4,3,2-.35.33-2,.08a64.11,64.11,0,0,0-9.4-.39,90.67,90.67,0,0,0-10.68,1.17q-2.37-.61-2.13-1.4a62.27,62.27,0,0,0,11-.71l.06-3.17a27.59,27.59,0,0,1-3.41.28q-2,0-1.23-.7,1.48-.2,4.78-.82l.06-3.63-3.18.4q-.59,1.12-.92.78a5.92,5.92,0,0,1-.64-2.39,7.35,7.35,0,0,1-.2-1.25q-.49-4.43-1.82-6-1.34-1.38,2.27-.41A63.16,63.16,0,0,0,86.87,25.64Zm-6.72,2a1.75,1.75,0,0,0-1,.1l-2.73.41q.39,3.75.78,7.5l3.41-.51,0-2.83a1.9,1.9,0,0,0-.46.11,5.73,5.73,0,0,1-1.14.09q-2.26-.72-1.12-1,.57-.1,1.37-.32a8,8,0,0,1,1.36-.2Q80.71,28,80.15,27.68ZM80.9,10.8l-.15,8.5h-.68l.15-8.5Zm3.17.28L83,12.88h-.79l-1-1.83h.57l.89,1.15.81-1.12Zm2.78,16.15A2.07,2.07,0,0,0,85.6,27q-.57.1-4.2.49,1.35.82,1.22,1.27a14.48,14.48,0,0,0-.26,1.92,3.34,3.34,0,0,1,1.25-.2.89.89,0,0,1,.34-.11q1.69.37,1.12.93a5.39,5.39,0,0,1-2.85.86L82.06,35a3.08,3.08,0,0,0,.68-.1,10,10,0,0,1,1.48-.2,1.93,1.93,0,0,1,.45.12,1.71,1.71,0,0,0,.68.24,19.34,19.34,0,0,0,1.45-5Q87.29,27.57,86.84,27.23Zm-4.06-7.89h-.68l.1-5.89h.68Z"/><path class="cls-2" d="M103.41,26.38q.46-.33,1.93,0c.83.24,1.28.51,1.35.82q0,.23-.58.78a15.18,15.18,0,0,0-2.32,2.91,5,5,0,0,1-.47.67,11.45,11.45,0,0,1-1.51,1.9,25.78,25.78,0,0,0,3.77-1.41,1.74,1.74,0,0,1,.68-.21q2.26.61,2.35,1.63a.33.33,0,0,1-.12.22q-.7.9-.64,4.3-.13,7.37-1.6,7.34c-.15,0-.33-.31-.55-.92s-.4-1.21-.54-1.6a11.07,11.07,0,0,1-3.41.73q-.14,1.59-.6,1.69c-.45-.08-.71-.54-.77-1.37q.24-7.36-1.41-10a.86.86,0,0,1-.11-.34q.12-.34,2.15,0a6.11,6.11,0,0,0,1.16-1.79,4.28,4.28,0,0,1,.47-1.13q1.41-2.7.75-4Q103.29,26.49,103.41,26.38Zm2.37,7.07q-.22-.23-2.84.4a10.23,10.23,0,0,1-1.71.31q.2,1.48.28,3.63,3.31-1.41,3.63-.16-.47.79-3.53,1,.08,1.82.27,4.09a1.25,1.25,0,0,1,.46-.22,10.83,10.83,0,0,1,2-.53,1.25,1.25,0,0,1,1.13.47.32.32,0,0,0,.22.12q.35-.45.42-4.75Q106.11,33.91,105.78,33.45Zm5-13.74V19a1.78,1.78,0,0,1-1.6.88q-1.93-.15-2-3.21.16-2.94,2.09-3a2.16,2.16,0,0,1,1.57.93l.06-3.29h.68l-.12,7.14a3,3,0,0,0,.1.68v.57Zm.05-2.95q0-2.38-1.43-2.41-1.25.09-1.4,2.36,0,2.49,1.2,2.51Q110.79,19.26,110.83,16.76Zm2.92,7.87A3.21,3.21,0,0,1,117,25.71a.88.88,0,0,1-.12.34,10.63,10.63,0,0,0-2.21,3.25l-1.28,2-.7,1a8.92,8.92,0,0,0,5.35-1.27c.15-.15.27-.22.34-.22q2.93.85,3.14,1.87a1.17,1.17,0,0,1-.23.45,3.62,3.62,0,0,0-1,2.48l0,1.81a29.34,29.34,0,0,1-.92,7.47q-1.3,3.15-3.35,3.57-.11,0-.44-.69A17.11,17.11,0,0,0,113.85,45c-.37-.38-.56-.61-.55-.69s.23-.11.68.13a1.92,1.92,0,0,1,.45.12q1.69.71,2.15.49,1.38-.88,2-6.54.3-4.08-.36-5.56-.33-.35-2.38,0-2.84.52-3.4-.29a19,19,0,0,1-2,2.23,6.1,6.1,0,0,1-1.73,1.56q-.68.22.13-.9a20.69,20.69,0,0,0,3.61-5.6q1.87-3.59,1.22-4.85C113.67,24.86,113.68,24.71,113.75,24.63Zm-2.7,11.63a3.35,3.35,0,0,1,3,1q1.1,2.06-.39,2.71Q112.36,39.35,111.06,36.26Zm1-24.69.91,0,1,1.83h-.57Zm1.56,8.3h-.79l.1-5.89h.79Z"/><path class="cls-2" d="M133.48,24.53q2.25.83,1.67,1.62-.23,0-2,4.39a18.51,18.51,0,0,0,2.16-.53l1.71-.31q1.7-.2,1.35.82-.24.56-5.69,1.37-.35.67-1.17,2.36l-1.18,2.7a12.82,12.82,0,0,0,3.41-.51,7.4,7.4,0,0,0-.4-3.18q-.33-.69.91-.1t1.12,1a3.13,3.13,0,0,0-.49,1.92,3.58,3.58,0,0,1,.8-.21,11.49,11.49,0,0,1,1.25-.32q1.36.14,1.12.81a2.73,2.73,0,0,1-1,.21q-1.25.21-2.16.42a29.67,29.67,0,0,1-.17,3.28q.57-.1,1.71-.42a7.53,7.53,0,0,0,.91-.21,3.19,3.19,0,0,1,1.36-.09q.22.23-.58.67l-3.42,1.19-.07,4.08a5.84,5.84,0,0,1-.13,1.13q-.16,2.38-.61,2.6-.57,0-1.1-2.17a.8.8,0,0,1,.13-.68,16.42,16.42,0,0,0,.76-4.63q-4.21,1.06-4.91,1.84-.58.44-1.69-.82T127,41.42h.23a23.22,23.22,0,0,0,6.48-.91,4.48,4.48,0,0,0,.14-1.36l0-1.93q-3.41.62-4.33,1.4-1.47-.14-.87-1.83,1.37-.54,2.69-4.83a4.66,4.66,0,0,1-1.93.08,3.06,3.06,0,0,1-1.47-.48q-.22-.34.69-.44l3.3-.51q1.19-3.49.66-5.2c-.14-.46-.14-.76,0-.91S133,24.37,133.48,24.53Zm0-10.43A2,2,0,0,1,135,15v-.68h.79a4.54,4.54,0,0,0-.14,1.24l-.12,6.8h-.68l0-2.83a2.15,2.15,0,0,1-1.71.76q-1.81-.14-1.87-3.09Q131.51,14.18,133.44,14.1ZM135,17.18q0-2.15-1.43-2.29T132,17.13q.07,2.38,1.32,2.52Q134.93,19.68,135,17.18Zm3.7-4.13-2.49,0v-.79l2.49,0Zm8.06,25.19q2.49.27,1.8,1.05-.46.45-4.44.83a1.67,1.67,0,0,1,.78,1,20.15,20.15,0,0,1-.52,3.73q.57-.1,1.59-.2,2.61-.41,3.41-.51,3.51.29,2.8,1.75A5,5,0,0,1,150,46a41.67,41.67,0,0,0-12.37.8q-2.14-.94-1-1.26a41.12,41.12,0,0,0,6.24-.57,23.52,23.52,0,0,0-.15-4.65,15.73,15.73,0,0,1-1.7.08,2.4,2.4,0,0,1-1.24-.25c-.22-.23-.15-.38.23-.45q2.27-.41,4.78-1.05A8.79,8.79,0,0,1,146.73,38.25Zm-9.09-18H137l.1-5.89h.68Zm8.49,7.29q.46-.33,1.92.6,1.23.93.66,1.26a2.08,2.08,0,0,0-1.38,1q-.23.22-1,1.23-1,1.12-1.62,1.79a26.46,26.46,0,0,1,5.08,1.34,3,3,0,0,1,1.66,2.07q.2,1.48-1,.89-1-.58-3.14-2.1-1.68-1.28-2.8-2a14.37,14.37,0,0,1-6,4.32c-.68.14-1.06.17-1.14.09s.19-.26.8-.55a22.41,22.41,0,0,0,7.63-8.26q-.11-.34-4,.72a6.88,6.88,0,0,1-1,.32q-2.14-.72-1.11-1.49Q144.17,29,146.12,27.58Zm-6.28-10.65-.06,3.4h-.68l.08-4.65a4.61,4.61,0,0,0-.09-1.25h.79v.68a1.53,1.53,0,0,1,1.49-.88q1.81,0,1.77,2.41l-.07,3.74h-.68l.07-3.85q-.09-1.36-1.22-1.5Q140,15.12,139.85,16.93Zm6.51-2.61a1.89,1.89,0,0,1,1.46.93l.13-.68h.68v.57a3.07,3.07,0,0,0-.13.68l-.07,3.85q.07,2.16-1.07,2.7a2.11,2.11,0,0,1-1.14.21q-1.93,0-1.9-1.62H145q.1.8,1.35.82a1.41,1.41,0,0,0,1.39-1.45v-.79a1.74,1.74,0,0,1-1.49.77q-2-.15-2.1-3Q144.31,14.4,146.36,14.32Zm1.42,3.09q-.08-2.15-1.43-2.29-1.25.09-1.4,2.24.07,2.16,1.32,2.29T147.78,17.41Z"/><path class="cls-2" d="M156.18,16.19A1.7,1.7,0,0,1,158,14.53a1.68,1.68,0,0,1,1.9,1.73h-.79q-.21-1-1.12-.93t-1,.89q0,.45,1,.81c-.07-.08,0-.08.11,0a2.51,2.51,0,0,1,1,.47,1.32,1.32,0,0,1,.88,1.38q-.15,1.81-2.19,1.89Q156,20.61,156,18.91h.68A1.18,1.18,0,0,0,158,20.08Q159.18,20,159.2,19c0-.45-.37-.8-1.12-1a.33.33,0,0,0-.22-.12h-.11Q156,17.44,156.18,16.19Zm18.37,18.91q.69-.33,2.48.84,1.57,1,.88,1.38a6.53,6.53,0,0,0-2.54,2.45q.89.7.54,1.37a9.27,9.27,0,0,1-2,.3q-4.88.37-9.54,1.08-1.59,6.55-6.72,8c-.91.29-1.41.35-1.48.2s.27-.45,1-.89a11.69,11.69,0,0,0,5-5.47q1.67-4.62.47-7.36-.78-1,.47-.79h.11a7.32,7.32,0,0,1,1.57.71Q173.41,35.88,174.56,35.11ZM162,12.22,162,15.5a1.53,1.53,0,0,1,1.49-.88q1.7,0,1.66,2.41l-.07,3.74h-.68l.07-3.85q0-1.47-1.22-1.5t-1.28,1.9l-.06,3.4h-.68l.15-8.5Zm6.72,11.34q2.82.73,2.35,1.63a12,12,0,0,0-.63,3.62,41,41,0,0,0,4.89-1.16q2.38-.18,2.36,1.06-.35.45-4,1-1.93.19-3.29.4a10,10,0,0,1-.14,1.36,4.39,4.39,0,0,1-.14,1.47l2.84-.63h.34q1.93-.19,1.35.82-1.71.76-8.64,1.55-3.17-.51-1.68-.94,1.36-.09,4.43-.6.15-2,.16-2.83a36.62,36.62,0,0,1-3.75.5c.23,0,0,0-.8.1a3.78,3.78,0,0,1-2.26-.27q-1.24-.59-.21-.8,4.77-.37,7-.78-.17-3.52-.94-4.55c-.22-.38-.25-.65-.1-.8S168.3,23.47,168.75,23.56Zm-.35,13.71a7.17,7.17,0,0,0-.91.1q-1.59.2-2.61.41a32.85,32.85,0,0,0-.29,3.85l4.09-.61Q169.07,37.73,168.4,37.27Zm2.26-19.12-3.74-.07q.07,2.16,1.55,2.18,1-.09,1.39-1.45h.79q-.61,2.14-2.3,2.11-2-.15-2.1-3.1.16-3.06,2.21-3.14Q170.72,14.75,170.66,18.15Zm-2.22-2.65q-1.25,0-1.5,1.79l2.95.05Q169.91,15.53,168.44,15.5Zm1.28-1.9-2.49,0v-.79l2.49,0Zm4.81,23q-1.13-.47-5,.48,1.24.59,1,1.26a9.94,9.94,0,0,0-.73,2.59q3.86-.61,4.1-1.29Q175,37.61,174.53,36.58Zm-2-19.08-.06,3.4h-.68l.08-4.65,0-1.25h.68v.68a1.69,1.69,0,0,1,1.49-.88q1.81,0,1.77,2.41L175.71,21H175l.07-3.85q0-1.47-1.22-1.49T172.49,17.5ZM179,14.89a2.49,2.49,0,0,1,1.57.93v-.68h.68l0,1.25-.07,3.85q.07,2.16-1.07,2.7a2.51,2.51,0,0,1-1.14.21q-2-.15-2-1.62h.79q0,.79,1.23.82a1.45,1.45,0,0,0,1.5-1.45v-.79a1.67,1.67,0,0,1-1.6.77q-2-.15-2.1-3Q176.95,15,179,14.89ZM180.53,18q-.08-2.15-1.43-2.29t-1.51,2.24q.07,2.16,1.43,2.29Q180.37,20.13,180.53,18Z"/></g></g></svg>