<svg xmlns="http://www.w3.org/2000/svg" viewBox="0 0 192.9 60.52"><defs><style>.cls-1{fill:#ec6545;}.cls-2{fill:#fff;}</style></defs><title>资源 41</title><g id="图层_2" data-name="图层 2"><g id="图层_1-2" data-name="图层 1"><rect class="cls-1" width="192.9" height="60.52" rx="15.39" ry="15.39"/><path class="cls-2" d="M12.07,31.28q-.57-.91,2.83.11,1.47,1.25.45,2.61-.91.23-2.83-2.15C12.29,31.55,12.14,31.36,12.07,31.28ZM17.84,33a1.34,1.34,0,0,1,.79-.79q.34.11,0,.79a77.28,77.28,0,0,0-3.85,10.19c-.23.91-.38,1.36-.45,1.36a4.2,4.2,0,0,1-2-3.29.74.74,0,0,1,.34-.34Q14.1,39.66,17.84,33Zm-3.28-7.93q-.91-1.47,2.83-.11,1.58,1.47.23,2.72-.57.23-2.49-1.93A7,7,0,0,0,14.56,25.05Zm13.71,0q.68-.79,3.06,1.36.68.57-.45,1.47a1.28,1.28,0,0,1-.45.45,10.12,10.12,0,0,0-1.47,3.06,19.46,19.46,0,0,1-2.27,5.21,25.11,25.11,0,0,0,4.42,3.62,17.54,17.54,0,0,0,5.21,1.93q1.58.34,1.25.57a18.31,18.31,0,0,1-4.3.57,7.7,7.7,0,0,1-3.17-.23q-.79-.23-4.42-5.21a15.06,15.06,0,0,1-3.28,2.83,16.74,16.74,0,0,1-4,1.59q-3.06.57-1.47-.34a19.41,19.41,0,0,0,7.82-5.55q-3.17-5.21-4.64-6-.68-.57-.45-.79a3.32,3.32,0,0,1,1.59.23q1.58,1,4.3,5.44A21.35,21.35,0,0,0,28,27.32q-.34-.23-3.28.57-3.29.91-3.85.57a5.48,5.48,0,0,1-1.47-.79q0-.34,1.25-.45A17.42,17.42,0,0,0,28.26,25.05ZM17.39,9.31v3.28a1.53,1.53,0,0,1,1.47-.91q1.7,0,1.7,2.38V17.8h-.68V14q0-1.47-1.25-1.47T17.39,14.4v3.4h-.68V9.31Zm7.93,8.5v-.68a2.14,2.14,0,0,1-1.7.79q-1.81-.11-1.93-3.17.11-2.94,1.93-3.06a2.05,2.05,0,0,1,1.7.91v-.91H26V17.8Zm0-3.06q0-2.26-1.59-2.27-1.36,0-1.36,2.27,0,2.49,1.36,2.49T25.32,14.74ZM22.49,9.53h.91l1,1.81h-.57ZM28,14.4v3.4h-.68V12.48a3.35,3.35,0,0,1-.11-.57H28v.68a1.53,1.53,0,0,1,1.47-.91q1.7,0,1.81,2.38V17.8h-.79V14q0-1.47-1.13-1.47Q28,12.48,28,14.4Z"/><path class="cls-2" d="M54.77,28.9q2.49.23,2.94,2.15A14.09,14.09,0,0,0,53.86,34a2.58,2.58,0,0,1,.79,1.36q1.13-.11,3.62-.57a18.53,18.53,0,0,1,3.85-.45q3.4.68,2.72,1.93a3,3,0,0,1-2.15.23,36.87,36.87,0,0,0-7.7-.11,19.62,19.62,0,0,1,.45,6.68Q55,46.69,53.3,47.48q-.34.23-1.25-.79a6.72,6.72,0,0,0-1.47-1.47,3.53,3.53,0,0,1-1.13-.79c0-.15.3-.15.91,0h.34a4.48,4.48,0,0,0,2,0q.79-.23,1-2.72a18.63,18.63,0,0,0-.23-5.21,78.13,78.13,0,0,0-9.29,1.81,5.82,5.82,0,0,1-.68.11,3,3,0,0,1-1.7-.79q-.79-.57-.23-.68,3.85-.23,11.67-1.36a2.51,2.51,0,0,0-1.25-1.7q-.68-.45-.23-.68a3.55,3.55,0,0,1,1.47.45q1.92-3.17,1.47-3.51t-5.44,1.92q-1.81-.68-1.59-1.47A19.17,19.17,0,0,0,54.77,28.9Zm5-4.53q.79-.23,2.83,1.25,1.47,1.36.79,1.7a8.16,8.16,0,0,1-.91.34,10,10,0,0,0-2.38.68c-.68.3-1.06.42-1.13.34s0-.38.34-.91q.79-1.58.34-1.93-1.59-.23-12.91,1.93-.57,2.61-1.7,3.28-.79.45-1.13.23T43.67,30a2.52,2.52,0,0,1,.34-.68,9.61,9.61,0,0,0,1.36-3.29q0-.91.45-.79a3.18,3.18,0,0,1,1,1.47Q57.94,25.05,59.75,24.37ZM50.13,17.8V17l2.72-4.42H50.13v-.68h3.62v.68L51,17h2.72v.79Zm1.36,3.62a3.51,3.51,0,0,1,3.17,1q.57,2.49-1,2Q50.35,21.88,51.48,21.43ZM53.86,9.53h.91l1,1.81h-.57Zm1.59,8.27h-.68V11.91h.68Z"/><path class="cls-2" d="M87.05,24q.91-.23,2.83.91,1.47.91.91,1.47-1,.79-2.72,5.32-.45,1.25-.68,1.81-.91,2.15-2.38.79l-.23-.23-2.38.23-.11,3.51q1.47-.34,2.61-.68,2-.23,2.27.91a9.36,9.36,0,0,1-3.17.79l-1.7.34-.11,3.17q7.59-.68,8.83-.68,3.4.34,3.06,1.93-.34.34-2,.11a64.1,64.1,0,0,0-9.4-.23A90.63,90.63,0,0,0,72,44.87q-2.38-.57-2.15-1.36a62.2,62.2,0,0,0,11-.91V39.44a27.59,27.59,0,0,1-3.4.34q-2,0-1.25-.68,1.47-.23,4.76-.91V34.57L77.76,35q-.57,1.13-.91.79a5.91,5.91,0,0,1-.68-2.38A7.31,7.31,0,0,1,76,32.19q-.57-4.42-1.93-6-1.36-1.36,2.27-.45A63.1,63.1,0,0,0,87.05,24Zm-6.68,2.15a1.75,1.75,0,0,0-1,.11l-2.72.45.91,7.48,3.4-.57V30.83a1.86,1.86,0,0,0-.45.11,5.8,5.8,0,0,1-1.13.11q-2.27-.68-1.13-1,.57-.11,1.36-.34a8,8,0,0,1,1.36-.23Q80.93,26.52,80.37,26.18Zm.45-16.88v8.5h-.68V9.31ZM84,9.53l-1,1.81h-.79l-1-1.81h.57l.91,1.13.79-1.13Zm3.06,16.08a2.07,2.07,0,0,0-1.25-.23q-.57.11-4.19.57,1.36.79,1.25,1.25a14.42,14.42,0,0,0-.23,1.93,3.34,3.34,0,0,1,1.25-.23.89.89,0,0,1,.34-.11q1.7.34,1.13.91a5.38,5.38,0,0,1-2.83.91l-.11,2.83a3.07,3.07,0,0,0,.68-.11,10,10,0,0,1,1.47-.23,1.93,1.93,0,0,1,.45.11,1.71,1.71,0,0,0,.68.23,19.32,19.32,0,0,0,1.36-5Q87.5,26,87.05,25.62ZM82.86,17.8h-.68V11.91h.68Z"/><path class="cls-2" d="M103.59,24.49q.45-.34,1.93,0c.83.23,1.28.49,1.36.79s-.19.42-.57.79A15.18,15.18,0,0,0,104,29a5,5,0,0,1-.45.68,11.5,11.5,0,0,1-1.47,1.92,25.91,25.91,0,0,0,3.74-1.47,1.74,1.74,0,0,1,.68-.23q2.26.57,2.38,1.58a.33.33,0,0,1-.11.23q-.68.91-.57,4.3,0,7.36-1.47,7.36c-.15,0-.34-.3-.57-.91s-.42-1.21-.57-1.59a11.07,11.07,0,0,1-3.4.79q-.11,1.59-.57,1.7c-.45-.07-.72-.53-.79-1.36q.11-7.36-1.59-10a.85.85,0,0,1-.11-.34q.11-.34,2.15,0a6.1,6.1,0,0,0,1.13-1.81,4.3,4.3,0,0,1,.45-1.13q1.36-2.72.68-4Q103.47,24.6,103.59,24.49Zm2.49,7q-.23-.23-2.83.45a10.22,10.22,0,0,1-1.7.34q.23,1.47.34,3.63,3.28-1.47,3.62-.23-.45.79-3.51,1,.11,1.81.34,4.08a1.25,1.25,0,0,1,.45-.23,10.84,10.84,0,0,1,2-.57,1.25,1.25,0,0,1,1.13.45.32.32,0,0,0,.23.11q.34-.45.34-4.76Q106.42,32,106.08,31.51Zm4.76-13.82V17a1.77,1.77,0,0,1-1.59.91q-1.93-.11-2-3.17.11-2.94,2-3.06a2.16,2.16,0,0,1,1.59.91V9.31h.68v7.14a3,3,0,0,0,.11.68v.57Zm0-2.94q0-2.38-1.47-2.38-1.25.11-1.36,2.38,0,2.49,1.25,2.49Q110.84,17.24,110.84,14.74Zm3.06,7.82a3.2,3.2,0,0,1,3.28,1,.89.89,0,0,1-.11.34,10.62,10.62,0,0,0-2.15,3.28l-1.25,2-.68,1a8.91,8.91,0,0,0,5.32-1.36c.15-.15.26-.23.34-.23q2.94.79,3.17,1.81a1.18,1.18,0,0,1-.23.45,3.61,3.61,0,0,0-.91,2.49v1.81a29.33,29.33,0,0,1-.79,7.48q-1.25,3.17-3.28,3.63c-.08,0-.23-.23-.45-.68a17.1,17.1,0,0,0-1.81-2.72c-.38-.38-.57-.6-.57-.68s.23-.11.68.11a1.93,1.93,0,0,1,.45.11q1.7.68,2.15.45,1.36-.91,1.93-6.57.23-4.08-.45-5.55-.34-.34-2.38,0-2.83.57-3.4-.23a19.08,19.08,0,0,1-1.93,2.26,6.09,6.09,0,0,1-1.7,1.59q-.68.23.11-.91a20.68,20.68,0,0,0,3.51-5.66q1.81-3.62,1.13-4.87C113.82,22.79,113.82,22.64,113.9,22.56ZM111.4,34.23a3.35,3.35,0,0,1,3.06.91q1.13,2-.34,2.72Q112.76,37.29,111.4,34.23ZM112,9.53h.91l1,1.81h-.57Zm1.7,8.27h-.79V11.91h.79Z"/><path class="cls-2" d="M133.6,22.11q2.26.79,1.7,1.59-.23,0-1.93,4.42a18.42,18.42,0,0,0,2.15-.57l1.7-.34q1.7-.23,1.36.79-.23.57-5.66,1.47-.34.68-1.13,2.38l-1.13,2.72a12.82,12.82,0,0,0,3.4-.57,7.39,7.39,0,0,0-.45-3.17q-.34-.68.91-.11t1.13,1a3.14,3.14,0,0,0-.45,1.93,3.6,3.6,0,0,1,.79-.23,11.45,11.45,0,0,1,1.25-.34q1.36.11,1.13.79a2.73,2.73,0,0,1-1,.23q-1.25.23-2.15.45a29.74,29.74,0,0,1-.11,3.29c.38-.07.94-.23,1.7-.45a7.48,7.48,0,0,0,.91-.23,3.2,3.2,0,0,1,1.36-.11q.23.23-.57.68L135.08,39v4.08a5.85,5.85,0,0,1-.11,1.13q-.11,2.38-.57,2.6-.57,0-1.13-2.15a.8.8,0,0,1,.11-.68,16.42,16.42,0,0,0,.68-4.64q-4.19,1.13-4.87,1.93-.57.45-1.7-.79t-.11-1.36h.23a23.22,23.22,0,0,0,6.46-1,4.48,4.48,0,0,0,.11-1.36V34.79q-3.4.68-4.3,1.47-1.47-.11-.91-1.81,1.36-.57,2.6-4.87a4.65,4.65,0,0,1-1.93.11,3,3,0,0,1-1.47-.45q-.23-.34.68-.45l3.28-.57q1.13-3.51.57-5.21c-.15-.45-.15-.75,0-.91S133.15,22,133.6,22.11Zm-.23-10.42a2,2,0,0,1,1.59.91v-.68h.79a4.54,4.54,0,0,0-.11,1.25V20H135V17.12a2.14,2.14,0,0,1-1.7.79q-1.81-.11-1.93-3.06Q131.45,11.8,133.38,11.69ZM135,14.74q0-2.15-1.47-2.27T132,14.74q.11,2.38,1.36,2.49Q135,17.24,135,14.74Zm3.62-4.19H136.1V9.76h2.49Zm8.49,25q2.49.23,1.81,1-.45.45-4.42.91a1.67,1.67,0,0,1,.79,1,20.16,20.16,0,0,1-.45,3.74q.57-.11,1.59-.23,2.6-.45,3.4-.57,3.51.23,2.83,1.7a5,5,0,0,1-2.15.11,41.64,41.64,0,0,0-12.35,1q-2.15-.91-1-1.25a41.07,41.07,0,0,0,6.23-.68,23.43,23.43,0,0,0-.23-4.64,15.7,15.7,0,0,1-1.7.11,2.4,2.4,0,0,1-1.25-.23c-.23-.23-.15-.38.23-.45q2.26-.45,4.76-1.13A8.8,8.8,0,0,1,147.08,35.59Zm-9.4-17.78H137V11.91h.68Zm8.61,7.14q.45-.34,1.93.57,1.25.91.68,1.25a2.08,2.08,0,0,0-1.36,1c-.15.15-.49.57-1,1.25q-1,1.13-1.59,1.81a26.38,26.38,0,0,1,5.1,1.25,3,3,0,0,1,1.7,2q.23,1.47-1,.91-1-.57-3.17-2-1.7-1.25-2.83-1.93a14.36,14.36,0,0,1-5.89,4.42c-.68.15-1.06.19-1.13.11s.19-.26.79-.57a22.41,22.41,0,0,0,7.48-8.38q-.11-.34-4,.79a6.89,6.89,0,0,1-1,.34q-2.15-.68-1.13-1.47Q144.36,26.41,146.29,24.94ZM139.83,14.4v3.4h-.68V13.16a4.62,4.62,0,0,0-.11-1.25h.79v.68a1.53,1.53,0,0,1,1.47-.91q1.81,0,1.81,2.38V17.8h-.68V14q-.11-1.36-1.25-1.47Q139.94,12.59,139.83,14.4Zm6.46-2.72a1.89,1.89,0,0,1,1.47.91l.11-.68h.68v.57a3.07,3.07,0,0,0-.11.68V17q.11,2.15-1,2.72a2.11,2.11,0,0,1-1.13.23q-1.93,0-1.93-1.59H145q.11.79,1.36.79a1.41,1.41,0,0,0,1.36-1.47V16.9a1.73,1.73,0,0,1-1.47.79q-2-.11-2.15-2.94Q144.25,11.8,146.29,11.69Zm1.47,3.06q-.11-2.15-1.47-2.27-1.25.11-1.36,2.27Q145,16.9,146.29,17T147.76,14.74Z"/><path class="cls-2" d="M156.14,13.39a1.7,1.7,0,0,1,1.81-1.7,1.68,1.68,0,0,1,1.93,1.7h-.79c-.15-.68-.53-1-1.13-.91s-1,.3-1,.91q0,.45,1,.79c-.08-.07,0-.07.11,0a2.51,2.51,0,0,1,1,.45A1.32,1.32,0,0,1,160,16q-.11,1.81-2.15,1.93Q156,17.8,156,16.1h.68a1.18,1.18,0,0,0,1.36,1.13c.75-.07,1.13-.45,1.13-1.13,0-.45-.38-.79-1.13-1a.33.33,0,0,0-.23-.11h-.11Q156,14.63,156.14,13.39ZM174.83,32q.68-.34,2.49.79,1.58,1,.91,1.36a6.52,6.52,0,0,0-2.49,2.49q.9.68.57,1.36a9.23,9.23,0,0,1-2,.34q-4.87.45-9.51,1.25-1.47,6.57-6.57,8.16-1.36.45-1.47.23c-.08-.15.26-.45,1-.91a11.67,11.67,0,0,0,4.87-5.55q1.58-4.64.34-7.36-.79-1,.45-.79h.11a7.32,7.32,0,0,1,1.59.68Q173.7,32.75,174.83,32ZM161.92,9.31v3.28a1.53,1.53,0,0,1,1.47-.91q1.7,0,1.7,2.38V17.8h-.68V14q0-1.47-1.25-1.47t-1.25,1.93v3.4h-.68V9.31Zm6.91,11.21q2.83.68,2.38,1.59a12,12,0,0,0-.57,3.62,41,41,0,0,0,4.87-1.25q2.38-.23,2.38,1-.34.45-4,1-1.93.23-3.28.45a10,10,0,0,1-.11,1.36,4.39,4.39,0,0,1-.11,1.47l2.83-.68h.34q1.92-.23,1.36.79-1.7.79-8.61,1.7-3.17-.45-1.7-.91,1.36-.11,4.42-.68.11-2,.11-2.83a36.52,36.52,0,0,1-3.74.57c.23,0,0,0-.79.11a3.78,3.78,0,0,1-2.27-.23q-1.25-.57-.23-.79,4.76-.45,7-.91-.23-3.51-1-4.53c-.23-.38-.27-.64-.11-.79S168.38,20.45,168.83,20.52Zm-.11,13.71a7.17,7.17,0,0,0-.91.11q-1.59.23-2.61.45a32.91,32.91,0,0,0-.23,3.85l4.08-.68Q169.4,34.68,168.72,34.23Zm1.93-19.14H166.9q.11,2.15,1.59,2.15,1-.11,1.36-1.47h.79q-.57,2.15-2.27,2.15-2-.11-2.15-3.06.11-3.06,2.15-3.17Q170.64,11.69,170.64,15.08Zm-2.27-2.61q-1.25,0-1.47,1.81h2.94Q169.85,12.48,168.38,12.48Zm1.25-1.93h-2.49V9.76h2.49Zm5.21,22.88q-1.13-.45-5,.57,1.25.57,1,1.25a9.93,9.93,0,0,0-.68,2.61q3.85-.68,4.08-1.36Q175.29,34.45,174.83,33.43Zm-2.38-19v3.4h-.68V11.91h.68v.68a1.69,1.69,0,0,1,1.47-.91q1.81,0,1.81,2.38V17.8h-.68V14q0-1.47-1.25-1.47T172.45,14.4Zm6.46-2.72a2.49,2.49,0,0,1,1.59.91v-.68h.68V17q.11,2.15-1,2.72A2.5,2.5,0,0,1,179,20q-2-.11-2-1.59h.79c0,.53.41.79,1.25.79a1.45,1.45,0,0,0,1.47-1.47V16.9a1.67,1.67,0,0,1-1.59.79q-2-.11-2.15-2.94Q176.87,11.8,178.91,11.69Zm1.59,3.06q-.11-2.15-1.47-2.27t-1.47,2.27Q177.66,16.9,179,17,180.38,16.9,180.5,14.74Z"/></g></g></svg>