<svg xmlns="http://www.w3.org/2000/svg" viewBox="0 0 132.3 60.52"><defs><style>.cls-1{fill:#ec6545;}.cls-2{fill:#fff;}</style></defs><title>资源 85</title><g id="图层_2" data-name="图层 2"><g id="图层_1-2" data-name="图层 1"><rect class="cls-1" width="132.3" height="60.52" rx="15.39" ry="15.39"/><path class="cls-2" d="M19,22.56a3.78,3.78,0,0,1-.11.91,16.78,16.78,0,0,0-.68,4.76q2.15-.68,2.27.23t-2.38,1.47v2.83q2.72-1.25,2.61-1,.23.45-2.61,2.26a55.59,55.59,0,0,1,0,7.36q-.45,2.49-1.7,2.83-.11,0-.68-.79a7.79,7.79,0,0,0-1.81-2.15c-.23-.23-.34-.38-.34-.45s.19-.07.57,0q1.81.45,2,.11.57-.23.79-6.12-2.83,1.93-5,3.63a4,4,0,0,1-.91.68q-2-.79-1.81-1.93a.46.46,0,0,1,.34-.11q1.81-.23,7.36-3.74V30a14,14,0,0,1-2.83.68,5.68,5.68,0,0,1-2.49-.34q-.79-.45.45-.68A24.25,24.25,0,0,0,17,28.56q.11-5-1-6.68a.37.37,0,0,1-.11-.45Q17.22,20.86,19,22.56Zm-1-8.83h-.68q-.11-1.36-1.36-1.25t-1.36,2.38Q14.72,17,16,17.24q1.13,0,1.36-1.36H18q-.23,2-1.93,2-2-.11-2.15-3.06.11-2.94,2.15-3.17A1.9,1.9,0,0,1,18,13.73Zm9.74,9.06q2.49,0,3.17,1.36a9.52,9.52,0,0,1-1.36.68q-2.61,1.25-5,2.49v.57a15.1,15.1,0,0,1,.11,3.29,53.32,53.32,0,0,0,7.25-1.59,4.4,4.4,0,0,1,1.25-.34q2,.23,1.93,1.59a1.54,1.54,0,0,1-1,.23,32.7,32.7,0,0,0-5.1.45,1.92,1.92,0,0,1,.79.79v2.94a13.19,13.19,0,0,1,2.83,1.13q1.7,1.47.68,2.27a7.88,7.88,0,0,1-2.38-1.13q-.79-.45-1.25-.68a72.47,72.47,0,0,1-.11,8.95,1.92,1.92,0,0,1-.11.45q-.34,1.58-.57,1.7-.57.11-.68-2.27,0-5.55.11-9.51a6.46,6.46,0,0,1-2-1.47,5,5,0,0,1,2,.34,8.19,8.19,0,0,0-.45-3.28l-3.17.34Q24.46,41,19.6,43.51a1.46,1.46,0,0,1-1,.23q-.23-.11.45-.68,4.53-3.4,4-13a6.54,6.54,0,0,0-.79-2.61c-.15-.23-.19-.38-.11-.45a2.94,2.94,0,0,1,1.25,0h.57q3.74-2.6,3.74-3.85A.46.46,0,0,1,27.75,22.79ZM19.82,9.31v3.28a1.32,1.32,0,0,1,1.36-.91q1.81,0,1.81,2.38V17.8h-.68V14q0-1.47-1.25-1.47T19.82,14.4v3.4h-.68V9.31Zm7.93,8.5v-.68a2.14,2.14,0,0,1-1.7.79q-1.81-.11-1.93-3.17.11-2.94,1.93-3.06a2.05,2.05,0,0,1,1.7.91v-.91h.68V17.8Zm0-3.06q0-2.26-1.59-2.27-1.36,0-1.36,2.27,0,2.49,1.25,2.49Q27.64,17.12,27.75,14.74Zm-2.83-4.19V9.76h2.49v.79Zm5.55-1.25v1h-.79v-1Zm-.68,2.6h.68V17.8h-.68Z"/><path class="cls-2" d="M50.63,22.56q3.28,1.25,2.38,1.93-1.7,1-6.34,6.12,11.1-1.7,10.65-1.93.79-.34,2.49.68,2.15,1.25,1.7,1.81-.91.68-1.25,4v.23a5,5,0,0,1-.11.91q-.45,3.63-.91,5.66A6,6,0,0,1,57,45.44q-.45.23-.57-1a7.61,7.61,0,0,0-.79-2.61,70.36,70.36,0,0,0-9.85.68q-.68,4.64-2.15-3.74-.79-6.57-1.47-7.36t-.45-.91c0-.07.23-.11.68-.11a1.75,1.75,0,0,1,.68.23,10,10,0,0,0,1.25.34h.11a2.59,2.59,0,0,0,1.25-.11q4.08-5.66,3.85-7.59a.7.7,0,0,1,.23-.79A1.43,1.43,0,0,1,50.63,22.56Zm6,7.82a110.45,110.45,0,0,0-12,1.36,30.09,30.09,0,0,0,.45,4.53q5-1.13,7.48-1.47,3.51,0,2.6,1-2.15.79-10,1.25.23,1.59.34,3.29.11,1.13.23,1.13a41.25,41.25,0,0,0,5.55-.68A19.25,19.25,0,0,1,55,40.34a2.53,2.53,0,0,1,.91.79c.3.53.57.72.79.57q1.13-1.25,1.47-8.38Q58.22,30.26,56.63,30.38Zm-8.5-12.46a2,2,0,0,1-1.7-.91v.68h-.68V9.31h.68v3.28a2.05,2.05,0,0,1,1.7-.91q1.81.11,1.93,3.06Q50,17.8,48.14,17.92Zm-.23-5.55q-1.36.11-1.47,2.38.11,2.38,1.59,2.49,1.25-.11,1.36-2.49T47.91,12.37Zm6.57,5.44v-.68a1.84,1.84,0,0,1-1.59.79q-1.93-.11-2-3.17.11-2.94,2-3.06a2.16,2.16,0,0,1,1.59.91v-.91h.68V17.8Zm0-3.06q0-2.26-1.47-2.27t-1.47,2.27q.11,2.38,1.36,2.49Q54.48,17.24,54.48,14.74Zm-1.25-3.51h-.91l1.36-1.7h.57Zm4-1.93v1h-.79v-1Zm-.68,2.6h.68V17.8h-.68Z"/><path class="cls-2" d="M71.93,32a4,4,0,0,1,2.15,1.36,5.37,5.37,0,0,1-.91,1.47,4.47,4.47,0,0,0-1,1.81,4.83,4.83,0,0,0,.34,1.13q1,2.27.45,3.51a48.59,48.59,0,0,0,10.65,2.38,40.76,40.76,0,0,0,9.63-.57q.91-.11,1,.11c.07.15-.11.34-.57.57-.15.08-.42.19-.79.34a31.09,31.09,0,0,1-6.12,1.81q-1.93.11-10.31-2.61a23,23,0,0,0-3.62-1.13,8.83,8.83,0,0,0-3.4.68,4.62,4.62,0,0,1-.79.23,2.17,2.17,0,0,1-1.13-.91c-.15-.38,0-.6.45-.68a13.16,13.16,0,0,1,4.3-.34,9.39,9.39,0,0,0-.91-3.28,3.55,3.55,0,0,1-.45-1.25,6,6,0,0,1,.57-1.93,8.89,8.89,0,0,0,.45-1.25,9.08,9.08,0,0,1-2.83.68q-1.93-.11-.68-.57a7.6,7.6,0,0,0,2.95-1.36A2,2,0,0,1,71.93,32Zm1.25-5.32q1.36,1.47.11,2.27a6,6,0,0,1-3.62-3.06Q71,25.39,73.17,26.64Zm3.4-8.95L76.46,17a1.77,1.77,0,0,1-1.59.91q-1.93-.11-2-3.17.11-2.94,2-3.06a2.16,2.16,0,0,1,1.59.91V9.31h.79v8.38Zm-.11-2.94q0-2.38-1.47-2.38-1.25.11-1.36,2.38,0,2.49,1.25,2.49Q76.46,17.24,76.46,14.74ZM90.39,27q.45.79-1.13.79a55.21,55.21,0,0,0-7,.68q.68.57.68.79a6.57,6.57,0,0,1-.68.91A17.11,17.11,0,0,0,81,31.51a17,17,0,0,0,4-1,.89.89,0,0,1,.34-.11,3.89,3.89,0,0,1,2.27,1,4.88,4.88,0,0,1-.11.79,8.41,8.41,0,0,0-.34,3.28,12.14,12.14,0,0,0,.23,2.15,9.85,9.85,0,0,1,0,2.15Q86.88,42,86.2,42.15c-.15,0-.34-.3-.57-.91A5.64,5.64,0,0,0,85,39.89l-5.1.45c-.15.91-.34,1.32-.57,1.25s-.57-.57-.79-1.47q.45-6.8-.57-8.38v-.11q0-.11.34,0a5.37,5.37,0,0,0,1.93-.11,5.49,5.49,0,0,0,.91-2.83,13.11,13.11,0,0,1-3.4.57A2.53,2.53,0,0,1,76.12,29q-.45-.34.34-.45,5.55-.91,10.87-2.15l.79-.11A3.13,3.13,0,0,1,90.39,27Zm-8.5-9.17-.11-.68a1.84,1.84,0,0,1-1.59.79q-1.93-.11-2-3.17.11-2.94,2-3.06a1.78,1.78,0,0,1,1.59.91v-.91h.79V17.8Zm-3.51,6a3.16,3.16,0,0,1,2.27.91q.91,1.36-.11,1.92Q79.18,26.41,78.38,23.81Zm3.4-9.06q0-2.26-1.47-2.27t-1.36,2.27q0,2.49,1.25,2.49Q81.78,17.24,81.78,14.74ZM79.06,9.53H80l.91,1.81h-.57Zm6.12,22.09A8.17,8.17,0,0,0,82,32q-1.59.34-2.38.45v1.92q4.76-1.58,4.53-.45-.91,1-4.53.91l.11,1.93a1.84,1.84,0,0,0,.57-.11q4-1,4.08-.34.79,1-4.64,1.13v2.38a25.09,25.09,0,0,0,2.72-.45,3.41,3.41,0,0,1,3.06.23q.11-2.15,0-5.44Q85.52,31.85,85.18,31.62Zm-.45-9.74q2.38.11,2.83,1.36a20.53,20.53,0,0,1-4.19,3.06c-.38.23-.61.27-.68.11a2.3,2.3,0,0,1,.45-.68q1.92-2.15,1.59-3.4C84.57,22.11,84.57,22,84.72,21.88Zm1.13-10.19q2.15.11,2.27,3.17Q88,17.8,85.86,17.92q-2.15-.11-2.27-3.06Q83.7,11.8,85.86,11.69Zm1.59,3.17q-.11-2.26-1.59-2.38-1.47.11-1.59,2.38.11,2.27,1.59,2.38Q87.33,17.12,87.44,14.86Z"/><path class="cls-2" d="M111.46,28.9q2.49.23,2.94,2.15A14.08,14.08,0,0,0,110.55,34a2.58,2.58,0,0,1,.79,1.36q1.13-.11,3.62-.57a18.53,18.53,0,0,1,3.85-.45q3.4.68,2.72,1.93a3,3,0,0,1-2.15.23,36.87,36.87,0,0,0-7.7-.11,19.62,19.62,0,0,1,.45,6.68q-.45,3.62-2.15,4.42-.34.23-1.25-.79a6.7,6.7,0,0,0-1.47-1.47,3.53,3.53,0,0,1-1.13-.79c0-.15.3-.15.91,0h.34a4.48,4.48,0,0,0,2,0q.79-.23,1-2.72a18.63,18.63,0,0,0-.23-5.21,78.13,78.13,0,0,0-9.29,1.81,5.59,5.59,0,0,1-.68.11,3,3,0,0,1-1.7-.79q-.79-.57-.23-.68,3.85-.23,11.67-1.36a2.51,2.51,0,0,0-1.25-1.7q-.68-.45-.23-.68a3.55,3.55,0,0,1,1.47.45q1.92-3.17,1.47-3.51T106,32.07q-1.81-.68-1.59-1.47A19.18,19.18,0,0,0,111.46,28.9Zm5-4.53q.79-.23,2.83,1.25,1.47,1.36.79,1.7a8.16,8.16,0,0,1-.91.34,10,10,0,0,0-2.38.68c-.68.3-1.06.42-1.13.34s0-.38.34-.91q.79-1.58.34-1.93-1.59-.23-12.91,1.93-.57,2.61-1.7,3.29-.79.45-1.13.23T100.36,30a2.52,2.52,0,0,1,.34-.68,9.6,9.6,0,0,0,1.36-3.29q0-.91.45-.79a3.18,3.18,0,0,1,1,1.47Q114.63,25.05,116.44,24.37Zm-9.63-6.57V17l2.72-4.42h-2.72v-.68h3.62v.68L107.72,17h2.72v.79Zm1.36,3.62a3.51,3.51,0,0,1,3.17,1q.57,2.49-1,2Q107,21.88,108.17,21.43Zm2.38-11.89h.91l1,1.81h-.57Zm1.59,8.27h-.68V11.91h.68Z"/></g></g></svg>