<svg xmlns="http://www.w3.org/2000/svg" viewBox="0 0 249.04 60.52"><defs><style>.cls-1{fill:#ec6545;}.cls-2{fill:#fff;}</style></defs><title>资源 64</title><g id="图层_2" data-name="图层 2"><g id="图层_1-2" data-name="图层 1"><rect class="cls-1" width="249.04" height="60.52" rx="15.39" ry="15.39"/><path class="cls-2" d="M11.14,31.28q-.57-.91,2.83.11,1.47,1.25.45,2.61-.91.23-2.83-2.15C11.37,31.55,11.21,31.36,11.14,31.28ZM16.92,33a1.34,1.34,0,0,1,.79-.79q.34.11,0,.79a77.27,77.27,0,0,0-3.85,10.19c-.23.91-.38,1.36-.45,1.36a4.2,4.2,0,0,1-2-3.28.74.74,0,0,1,.34-.34Q13.18,39.66,16.92,33Zm-3.28-7.93q-.91-1.47,2.83-.11,1.58,1.47.23,2.72-.57.23-2.49-1.93A7,7,0,0,0,13.63,25.05Zm13.71,0q.68-.79,3.06,1.36.68.57-.45,1.47a1.28,1.28,0,0,1-.45.45A10.12,10.12,0,0,0,28,31.39a19.46,19.46,0,0,1-2.27,5.21,25.11,25.11,0,0,0,4.42,3.62,17.54,17.54,0,0,0,5.21,1.93q1.58.34,1.25.57a18.31,18.31,0,0,1-4.3.57,7.7,7.7,0,0,1-3.17-.23q-.79-.23-4.42-5.21a15,15,0,0,1-3.28,2.83,16.74,16.74,0,0,1-4,1.59q-3.06.57-1.47-.34a19.41,19.41,0,0,0,7.82-5.55q-3.17-5.21-4.64-6-.68-.57-.45-.79a3.32,3.32,0,0,1,1.59.23q1.58,1,4.3,5.44a21.34,21.34,0,0,0,2.49-7.93q-.34-.23-3.28.57-3.29.91-3.85.57a5.48,5.48,0,0,1-1.47-.79q0-.34,1.25-.45A17.42,17.42,0,0,0,27.34,25.05ZM16.46,9.31v3.28a1.53,1.53,0,0,1,1.47-.91q1.7,0,1.7,2.38V17.8H19V14q0-1.47-1.25-1.47T16.46,14.4v3.4h-.68V9.31Zm7.93,8.5v-.68a2.14,2.14,0,0,1-1.7.79q-1.81-.11-1.93-3.17.11-2.94,1.93-3.06a2.05,2.05,0,0,1,1.7.91v-.91h.68V17.8Zm0-3.06q0-2.26-1.59-2.27-1.36,0-1.36,2.27,0,2.49,1.36,2.49T24.39,14.74ZM21.56,9.53h.91l1,1.81h-.57Zm5.55,4.87v3.4h-.68V12.48a3.35,3.35,0,0,1-.11-.57h.79v.68a1.53,1.53,0,0,1,1.47-.91q1.7,0,1.81,2.38V17.8H29.6V14q0-1.47-1.13-1.47Q27.11,12.48,27.11,14.4Z"/><path class="cls-2" d="M53.84,28.9q2.49.23,2.94,2.15A14.09,14.09,0,0,0,52.94,34a2.58,2.58,0,0,1,.79,1.36q1.13-.11,3.62-.57a18.49,18.49,0,0,1,3.85-.45q3.4.68,2.72,1.93a3,3,0,0,1-2.15.23,36.87,36.87,0,0,0-7.7-.11,19.62,19.62,0,0,1,.45,6.68q-.45,3.62-2.15,4.42-.34.23-1.25-.79a6.71,6.71,0,0,0-1.47-1.47,3.53,3.53,0,0,1-1.13-.79c0-.15.3-.15.91,0h.34a4.48,4.48,0,0,0,2,0q.79-.23,1-2.72a18.64,18.64,0,0,0-.23-5.21,78.13,78.13,0,0,0-9.29,1.81,5.7,5.7,0,0,1-.68.11,3,3,0,0,1-1.7-.79q-.79-.57-.23-.68,3.85-.23,11.67-1.36a2.51,2.51,0,0,0-1.25-1.7q-.68-.45-.23-.68a3.55,3.55,0,0,1,1.47.45q1.92-3.17,1.47-3.51t-5.44,1.93q-1.81-.68-1.59-1.47A19.18,19.18,0,0,0,53.84,28.9Zm5-4.53q.79-.23,2.83,1.25,1.47,1.36.79,1.7a8.16,8.16,0,0,1-.91.34,10,10,0,0,0-2.38.68c-.68.3-1.06.42-1.13.34s0-.38.34-.91q.79-1.58.34-1.93-1.59-.23-12.91,1.93-.57,2.61-1.7,3.28-.79.45-1.13.23T42.74,30a2.52,2.52,0,0,1,.34-.68,9.6,9.6,0,0,0,1.36-3.28q0-.91.45-.79a3.18,3.18,0,0,1,1,1.47Q57,25.05,58.83,24.37ZM49.2,17.8V17l2.72-4.42H49.2v-.68h3.62v.68L50.1,17h2.72v.79Zm1.36,3.62a3.51,3.51,0,0,1,3.17,1q.57,2.49-1,2Q49.42,21.88,50.56,21.43ZM52.94,9.53h.91l1,1.81H54.3Zm1.59,8.27h-.68V11.91h.68Z"/><path class="cls-2" d="M81.59,29.81q.34-.57,1.59.23,1.25,1,.34,1.13a1.91,1.91,0,0,0-.45.11,27.58,27.58,0,0,1-4.3,1.25l.23.23c.6.38.83.68.68.91a1.91,1.91,0,0,1-.11.45q-.23.57-.34.91.91-.23,2-.57a11.24,11.24,0,0,1,1.93-.34,2.49,2.49,0,0,1,1.47.34q.34.34-.45.57t-2.6.57q-1.36.23-2.38.45a8.08,8.08,0,0,0,0,1.93v.45a21.76,21.76,0,0,0,3.62-1,5.43,5.43,0,0,1,2.6-.57q2.49.45,2.49,1.13-.23.34-1.93.57-3.4.34-6.91,1-.11,3.17,2.15,4.08,1.47.91,5.44.57,3.17-.34,4.3-1.47l.11-.11a7.81,7.81,0,0,0,1.25-3.4c.07-.53.19-.79.34-.79s.15.27.23.79a12.24,12.24,0,0,0,.68,3.4q.45.91-.11,1.36-1,.91-4.53,1.47a16.63,16.63,0,0,1-8.16-.34,3.51,3.51,0,0,1-1.47-.91Q77.85,42.83,78,39.78a39.71,39.71,0,0,0-7,1.93,4,4,0,0,1-2.38-.79q-.79-.57.34-.68Q72,39.89,78,38.64V37.28c.07-.53.07-.83,0-.91a9.24,9.24,0,0,1-2.94.45,3.87,3.87,0,0,1-1.93-.23q-.45-.23.57-.45c.07,0,.57-.11,1.47-.34a29.08,29.08,0,0,0,2.94-.57,4.93,4.93,0,0,0-.34-2.38,16.74,16.74,0,0,1-4.3.68c-.6.08-.91,0-.91-.11s.26-.19.79-.34Q80.91,31.17,81.59,29.81Zm-6.8-7q2.94.34,2.15,1-.11.11-1.7,2.38a7.52,7.52,0,0,1,1-.23l2.95-.79a1.53,1.53,0,0,1,1.36.45q.23.45-.68.68a12.56,12.56,0,0,1-4.87.34,11.24,11.24,0,0,1-4.19,4.08q-.79.34-.79.23t.57-.68q3.74-4,3.74-6.68C74.19,23.05,74.34,22.79,74.8,22.79Zm.68,5.1a3.54,3.54,0,0,1,2,.79,1.17,1.17,0,0,1,.11,1.47q-.45.68-1.13.11Q74,27.77,75.48,27.88Zm4.42-10A2,2,0,0,1,78.31,17v.68h-.79a6.46,6.46,0,0,0,.11-1.25V9.31h.68v3.28a1.78,1.78,0,0,1,1.59-.91q1.92.11,2,3.06Q81.82,17.8,79.89,17.92Zm-.11-5.55q-1.36.11-1.47,2.38,0,2.49,1.59,2.49,1.24-.11,1.36-2.49Q81.14,12.48,79.78,12.37Zm4.53,9.4q2.49.45,1.59,1.36a3.26,3.26,0,0,0-.34.45q-.57.79-1.25,1.7,1.47-.34,3.17-.79a3.88,3.88,0,0,1,1.7-.34q2,.11,1.59.91a9.16,9.16,0,0,1-4,.91q-2,.11-2.61-.45A12.86,12.86,0,0,1,80.69,29q-1,.45-1,.34t.68-.79q3.06-3.17,3.17-5.89C83.37,21.92,83.63,21.62,84.31,21.77Zm.45-12.23-1,1.81h-.68L81.93,9.53h.68l.79,1.13.79-1.13Zm-1,8.27h-.68V11.91h.68Zm.79,9.63a4.47,4.47,0,0,1,2.15.34,1.57,1.57,0,0,1,.79,1.47q-.11.79-1,.34a1.27,1.27,0,0,0-.45-.23Q82.72,27.55,84.54,27.43Z"/><path class="cls-2" d="M118,33.55a3.13,3.13,0,0,1,2.83,2,1.83,1.83,0,0,1-.23.79,6.23,6.23,0,0,0-.45,1.7q-1,6.8-2.27,6.34-.91-.23-.23-2.94-1.47.11-4.08.45-6.12.68-7.82.91-3.74.57-4.64,1.47a.33.33,0,0,1-.23.11q-.91-.34-1.13-1.81c0-.15.11-.3.34-.45a3,3,0,0,0,.57-2.49,7.88,7.88,0,0,0-1.7-3.74,1.64,1.64,0,0,1-.34-.57,3.44,3.44,0,0,1,2.83.45,46.41,46.41,0,0,1,.68,6,55.58,55.58,0,0,0,8.72-.68q4.64-.57,6.91-.68,1-4,.11-6.12C117.69,34,117.72,33.7,118,33.55Zm-3.4-5.66q2.6.79,3.06,1.93a.66.66,0,0,1-.34.57,2.78,2.78,0,0,0-1,1.59Q115,37.06,114,38.42c-.38.45-.64.6-.79.45s-.27-.49-.34-1.25l-6.8.79q-.34,1-.79.68t-.57-1.81q-.68-5.1-2.27-7.14a.56.56,0,0,1-.11-.57c.07-.07.45-.07,1.13,0q1.25.11,1.59.11,7.93-1,9.29-1.7A.33.33,0,0,1,114.55,27.88ZM103.23,9.31v3.28a1.69,1.69,0,0,1,1.47-.91q1.81,0,1.81,2.38V17.8h-.68V14q0-1.47-1.25-1.47t-1.36,1.93v3.4h-.68V9.31Zm10.31,14.16q1.81-.11,2.27.45t-1.36,1.13a37.52,37.52,0,0,1-8.16,1.25q-3.74-.79-1.59-1.13a38.57,38.57,0,0,0,7.14-1.36A6.55,6.55,0,0,1,113.53,23.47Zm-5,6.57-3.74.68a42.4,42.4,0,0,1,1,7l3.17-.45-.11-3.06a5.5,5.5,0,0,1-1.59,0h-.11q-2.38-.45,1.25-1.13A3.52,3.52,0,0,1,109,33,12.87,12.87,0,0,0,108.55,30Zm2.6-14.72v-3.4h.68v4.53a8.19,8.19,0,0,0,.11,1.36h-.79V17a1.69,1.69,0,0,1-1.47.91q-1.7,0-1.7-2.38V11.91h.57v3.74q.11,1.47,1.25,1.59Q111,17.12,111.16,15.31Zm2.94,14.16q-.23-.23-4.76.45l.11.11c.75.53,1.13.91,1.13,1.13a1.91,1.91,0,0,1-.11.45,4.26,4.26,0,0,1-.11,1q2.49-.45,2.49.34t-2.72,1L110,37.17q.68-.11,2-.23l.91-.11q.68-.57,1.25-4.08Q114.66,30,114.1,29.47Zm2.49-11.67v-.68a2.14,2.14,0,0,1-1.7.79q-1.93,0-1.93-3.17.11-2.94,1.93-3.06a2.05,2.05,0,0,1,1.7.91v-.91h.68V17.8Zm0-3.06q0-2.26-1.59-2.27-1.36,0-1.36,2.27,0,2.49,1.36,2.49T116.59,14.74Zm-2.83-5.21h.91l.91,1.81h-.45Z"/><path class="cls-2" d="M139.93,29.47a3.43,3.43,0,0,1,2.6,1.7.92.92,0,0,1-.34.57q-1.59,1.59-1.7,5.21-1,6,4.87,5.55,3.74.23,4.19-3.85A2.15,2.15,0,0,1,150,37.4q.23-.23.34.45a23.66,23.66,0,0,0,.57,4.3,2,2,0,0,1,0,1.36q-1.7,1.13-5.78,1.13Q138.23,44.54,139,38a34.3,34.3,0,0,1,.57-4.08q.45-2.49,0-2.38a7.27,7.27,0,0,0-2.72.57,8.19,8.19,0,0,0-.91.23q.23,8.27-6,11.55-2.61.91-1.47,0a11,11,0,0,0,5.66-9.4,8.06,8.06,0,0,0-.34-3.17.56.56,0,0,1-.11-.57,2.18,2.18,0,0,1,2,.45,10.47,10.47,0,0,0,3.85-1.47C139.74,29.55,139.85,29.47,139.93,29.47Zm5.21-5.21q3.85,1.47,4.08,3.4c-.08.15-.34.27-.79.34a14.53,14.53,0,0,0-4,1.36q-.45.23.11-1.13.91-1.92.45-2.15-.79-.34-7.82.68-3.63.45-5,.57a8.15,8.15,0,0,1-2.15,4q-1.7.79-1-2.15a10,10,0,0,0,1.93-4c.07-.3.15-.45.23-.45q.57.11,1.25,1.7a74.73,74.73,0,0,0,12.12-2A1.9,1.9,0,0,1,145.14,24.26ZM130.75,14.18V17.8h-.68V11.91h.68v.57a1.32,1.32,0,0,1,1.13-.79h.57v.79h-.34Q130.86,12.48,130.75,14.18Zm4.53-2.49q2.15.11,2.27,3.17-.11,2.95-2.27,3.06-2.15-.11-2.38-3.06Q133.13,11.8,135.28,11.69Zm1.59,3.17q-.11-2.26-1.59-2.38-1.47.11-1.59,2.38.11,2.27,1.59,2.38Q136.75,17.12,136.87,14.86Zm-.11-5.32-1.13,1.81h-.79l-1-1.81h.68l.79,1.13.79-1.13Zm2.6,4.87v3.4h-.79V11.91h.68l.11.68a1.53,1.53,0,0,1,1.47-.91q1.7,0,1.7,2.38V17.8h-.68V14q0-1.47-1.25-1.47T139.36,14.4Zm6.34-2.72a2.49,2.49,0,0,1,1.59.91v-.68H148V17q.11,2.15-1,2.72a2.51,2.51,0,0,1-1.13.23q-2-.11-2-1.59h.79q.11.79,1.36.79a1.41,1.41,0,0,0,1.36-1.47V16.9a1.84,1.84,0,0,1-1.59.79q-2-.11-2.15-2.94Q143.66,11.8,145.7,11.69Zm1.59,3.06q-.11-2.15-1.47-2.27-1.36.11-1.47,2.27.11,2.15,1.47,2.27T147.29,14.74Z"/><path class="cls-2" d="M165.64,21.43a2.34,2.34,0,0,1,2.72,1.36q-.11.23-.57.91a5.12,5.12,0,0,0-.45.68q6.12,6.8,13.14,8.61c.91.23,1.36.38,1.36.45s-.3.3-1.13.45a18.68,18.68,0,0,1-5.44.11q-2.49-1.81-8.49-8.95a27,27,0,0,1-10.65,11.1q-1.13.57-1.36.45c-.15-.07,0-.34.57-.79a37.24,37.24,0,0,0,8.72-9.4q1.81-2.94,1.47-4.53C165.45,21.65,165.49,21.5,165.64,21.43Zm3.74,9.74a2.44,2.44,0,0,1,1.93.57q.23.45-1.25.79a8,8,0,0,0-1.36.23q-1.36.34-2,.45a1.64,1.64,0,0,1,.91,1.93,5.26,5.26,0,0,0-.11,1q1-.23,2.72-.45a11.38,11.38,0,0,1,3.17-.45,2.77,2.77,0,0,1,2.15,1q0,.57-1.81.57-3.17,0-6.12.23,0,.91.11,2.38.23,2.49.23,4.87-.34,2.38-1.81,3.06-.34,0-1-1.13a4.27,4.27,0,0,0-1.47-1.7c-.45-.3-.64-.49-.57-.57s.41-.15,1,0h.23c.91.3,1.43.38,1.59.23q.57-.91.23-6.91a28.49,28.49,0,0,0-4.64.79,6.2,6.2,0,0,1-1.25.23,3.14,3.14,0,0,1-1.59-.79q-.23-.23.57-.34a64.27,64.27,0,0,0,6.91-.79,8.43,8.43,0,0,0-.68-2.94q-4.76,0-2.6-.79a32,32,0,0,0,4.64-1.13A6.89,6.89,0,0,1,169.38,31.17ZM161.56,42.5Q160.2,44.76,159,45q-.57-.34-.23-1.93,1.36-1.81,2.38-3.4l.34-.45Q162.24,40.23,161.56,42.5Zm1.7-30.58h.79l1.59,4.64,1.59-4.64h.68l-2.6,8h-.79l.68-2.27Zm8.72,3.4v-3.4h.68V17.8H172V17a1.69,1.69,0,0,1-1.47.91q-1.81,0-1.81-2.38V11.91h.79v3.74q.11,1.59,1.13,1.59Q171.87,17.12,172,15.31Zm-2,24.47A6.72,6.72,0,0,1,174.47,41q1.81,1.93.68,3.06Q173.79,44.08,169.94,39.78Zm1-28.43h-.91l1.36-1.81H172Z"/><path class="cls-2" d="M188.4,22.22q2.83.57,2.49,1.81a11.47,11.47,0,0,0-.91,5.21,4,4,0,0,1,1.81-.45q1.7.68-1.81,1.81v.45q-.11,1.81-.11,2.95a5.07,5.07,0,0,0,.68-.45q1.81-1.13,1.93-1,.23.34-2.49,2.49l-1.13.68q-3.74,2.95-4,3.51t-1.7-.45l-.11-.11q-.45-.34-.34-.68a.88.88,0,0,1,.79-.34q.79-.11,5.32-3.06V30.94a10.34,10.34,0,0,1-3.85.45c-.83-.15-1.25-.34-1.25-.57s.38-.3,1.13-.45l2.72-.57q.91-.23,1.25-.34.11-4.42-.79-6.23Q187.5,22.33,188.4,22.22Zm.45,13.48L190,35q.11,3.63.11,5.32T190,43.4q-.23,2.38-1.13,2.95-.45.34-1-.91a13.23,13.23,0,0,0-1.47-2.27c-.3-.3-.42-.49-.34-.57s.3,0,.68.11a4.51,4.51,0,0,0,1.7.34,5.25,5.25,0,0,0,.45-2.49Q189,37.85,188.86,35.7Zm2.61-23.11h-.91v-.68h.91V10.67l.68-.34v1.59h1.13v.68h-1.13v3.85q0,.79.68.79a3.36,3.36,0,0,0,.57-.11v.68h-.11a.33.33,0,0,1-.23.11h-.34q-1.36,0-1.25-1.59Zm7.14,18.46q1.7.45,1.47.79a6.72,6.72,0,0,0-.23,2.15,34.4,34.4,0,0,1,3.62-1h.11q2.38-.23,1.93.91-.34.45-5.66,1.13v.79a29.36,29.36,0,0,0,10.42,5.89q.91.23.91.57t-1,.45a16.76,16.76,0,0,1-4.64.34q-.68-.11-4.19-4.76-1.13-1.47-1.47-1.81,0,.68.11,2.38,0,2.95.11,5.78.11,3.06-.79,2.6a5.28,5.28,0,0,1-1-2.49,3,3,0,0,1,.11-1.36,8.68,8.68,0,0,0,.34-2.27q.11-2.15.11-4.76a20.14,20.14,0,0,1-6.34,6.68q-1.25.79-1.47.68c-.15-.07.11-.41.79-1a34.35,34.35,0,0,0,5.89-7.25,15.42,15.42,0,0,1-3.51.45q-2-.23-.79-.68,2.49-.34,5.32-1v-.34q-.23-1.92-.57-2.15c-.23-.15-.3-.3-.23-.45S198.22,31.05,198.6,31.05Zm6.23-7.81a3.37,3.37,0,0,1,2.49.91q1.25,1,.68,1.59a.46.46,0,0,1-.34.11,12.12,12.12,0,0,0-2.61,1,.88.88,0,0,0-.34.11q-1.36.79-.57-.68t.23-1.59-2.49.34q-3.85.57-6.57.91a11.32,11.32,0,0,1-.57,2.83q-.45,1.25-1.13,1.13-.68-.34-.57-1.59a3.15,3.15,0,0,1,.23-.68,8.8,8.8,0,0,0,.68-2.49q-.11-.57.34-.68a1.92,1.92,0,0,1,.79.79A51.16,51.16,0,0,0,204.83,23.24Zm-7.25-5.44v-.68a2,2,0,0,1-1.59.79q-1.93-.11-2-3.17.11-2.94,2-3.06a2.16,2.16,0,0,1,1.59.91v-.91h.68v4.76a8.19,8.19,0,0,0,.11,1.36Zm0,9.51q1.7.79,1.13,1.25a7.57,7.57,0,0,0-1.13,1.13,22.13,22.13,0,0,1-2.38,2.15c-.68.45-1.06.64-1.13.57,0-.23.26-.64.79-1.25q2-2.38,1.81-3.4c0-.3.07-.49.23-.57A.81.81,0,0,1,197.58,27.32Zm0-12.57q0-2.15-1.47-2.27t-1.47,2.27q.11,2.38,1.36,2.49Q197.46,17.12,197.58,14.74Zm-2.83-5.21h.91l1,1.81h-.57Zm5.55,4.87v3.4h-.68V11.91h.68v.68a1.53,1.53,0,0,1,1.47-.91q1.81,0,1.81,2.38V17.8h-.79V14q0-1.47-1.13-1.47T200.3,14.4Zm1,13.25a8.28,8.28,0,0,1,2.27,1,1.78,1.78,0,0,1,.79,1.7q-.45,1-1.36.23Q199.5,27.09,201.32,27.66Z"/><path class="cls-2" d="M222.38,32.87A3,3,0,0,1,224.88,34a.65.65,0,0,1-.23.45,4,4,0,0,0-.57,1.13,8,8,0,0,0,3.28-1.25c.15-.15.26-.23.34-.23q2,.23,2.27,1.47,0,.11-.34.34a5,5,0,0,0-1.7,3.06q-.79,4.08,1.13,4.76a8.05,8.05,0,0,0,5.66-.23q1-.68,1.59-3.17.45-1.58.57-.45a.9.9,0,0,1,.11.34,10.21,10.21,0,0,0,.68,2.83c.23.53.3.87.23,1q-.45.68-3.17,1.47a13.24,13.24,0,0,1-4.53.11q-4.76-.91-3.74-6.46a28.9,28.9,0,0,1,.79-3.51l-3.4.79q-1.93,6.34-6.57,8.5a6.86,6.86,0,0,1-2.72.79q-.34-.11,1.36-1.13a13.38,13.38,0,0,0,6.23-7.7,17,17,0,0,1-1.7.45,7.44,7.44,0,0,1-2.27.45,3.06,3.06,0,0,1-1.47-.91c-.15-.3.11-.45.79-.45a20.48,20.48,0,0,0,5-.57,5.35,5.35,0,0,0-.11-2.49A.72.72,0,0,1,222.38,32.87Zm10.08-8.61q3.28,1.13,3.74,2.83c0,.08-.19.15-.57.23a8.13,8.13,0,0,0-3.51,1.36,5.64,5.64,0,0,0-.57.34q-.91.91-.11-.91t.79-2q-.11-.45-13.37,1.59a9,9,0,0,1-2.38,3.74q-1-.23-.57-2a18.45,18.45,0,0,0,1.7-3.62,1.22,1.22,0,0,1,.23-.45q.34-.11,1,1.59,11-1.47,13.37-2.49A.33.33,0,0,1,232.47,24.26Zm-10.65,4.42A2.08,2.08,0,0,1,224,29.81a13,13,0,0,1-4.64,3.85q-1.59.68-1.7.57t1.25-1.13q2.72-2.15,2.83-4.08C221.7,28.79,221.74,28.68,221.82,28.68Zm-.34-8.61v-.79h.23q.57.11.45-1V11.91h.68V18q.23,2.27-1.25,2ZM223,9.31v1h-.79v-1Zm.23,12.46a4.54,4.54,0,0,1,3.4.23q1.7,1.36.23,2.6A5.91,5.91,0,0,1,223.18,21.77ZM225,9.31v1h-.79v-1Zm-.68,2.6H225V17.8h-.68Zm1.81,16.42a5.24,5.24,0,0,1,3.28,1.13q1.58,1.47.45,2.6Q228.16,31.73,226.12,28.34Zm3.51-13v-3.4h.68v4.53a3,3,0,0,0,.11.68v.68h-.68l-.11-.79a1.53,1.53,0,0,1-1.47.91q-1.7,0-1.7-2.38V11.91h.68v3.74q0,1.59,1.25,1.59T229.63,15.31Zm0-4.76h-2.49V9.76h2.49Z"/></g></g></svg>