<svg xmlns="http://www.w3.org/2000/svg" viewBox="0 0 366.25 60.52"><defs><style>.cls-1{fill:#ec6545;}.cls-2{fill:#fff;}</style></defs><title>资源 129</title><g id="图层_2" data-name="图层 2"><g id="图层_1-2" data-name="图层 1"><rect class="cls-1" width="366.25" height="60.52" rx="15.39" ry="15.39"/><path class="cls-2" d="M17.61,31.15q1.58.45,1.81,1.25c0,.08-.11.23-.34.45a12.26,12.26,0,0,0-2.72,3.74,1.54,1.54,0,0,1,.45,1.13.45.45,0,0,0,.11.34l.45.11q1.58-2,1.59-2.94c0-.15,0-.23.11-.23q.91,0,1.59,1.36a1.23,1.23,0,0,1-.57.45,14.58,14.58,0,0,0-1.93,1.47q2.6.68,1.59,2.49-.34.11-1.47-1a17.9,17.9,0,0,0-1.36-1.25q.11,10.76-1.36,10a3.39,3.39,0,0,1-.68-2.27,1.82,1.82,0,0,1,.23-.79q.79-1.7.57-7.93A19.64,19.64,0,0,1,10,42.81c-.38.23-.61.3-.68.23s0-.38.34-.68a29.62,29.62,0,0,0,6.91-9.29,32.61,32.61,0,0,0-4.08,1.36,2.57,2.57,0,0,1-.79.23q-2.61-1.25-1.25-1.47,4.87-.23,6.8-1.81C17.43,31.22,17.54,31.15,17.61,31.15Zm-2.15-5.44q1.58-.45,3.62,1.13.45,1.59-.45,2.15A5.87,5.87,0,0,1,15.46,25.71Zm4.19-5.78A1.77,1.77,0,0,1,18.07,19l-.11.68h-.68v-.57a3.16,3.16,0,0,0,.11-.68V11.32h.68v3.28a1.77,1.77,0,0,1,1.59-.91q1.92.11,2,3.06Q21.58,19.82,19.65,19.93Zm5.66,4.53q1.36-.68,3.17,1.13a.89.89,0,0,1-.11.34,17.69,17.69,0,0,0-.68,5,14.51,14.51,0,0,0,2.94-1,1.4,1.4,0,0,1,.79-.34q2.38,1,2.61,1.93a3.7,3.7,0,0,1-1.25.79,9.33,9.33,0,0,0-1.93.91.33.33,0,0,0-.23.11q-.79.68-.34-.34.57-1.36.34-1.59a4.72,4.72,0,0,0-1.7.23q-.79.11-1.36.23l-.34,4.42a6.86,6.86,0,0,0,1.7-.91.46.46,0,0,1,.34-.11q1.7.45,2,1.36a.36.36,0,0,1-.23.34,4.3,4.3,0,0,0-.79,1.13c-.08.23-.23.61-.45,1.13A14.25,14.25,0,0,1,28.49,42a17.28,17.28,0,0,0,8,4.19c.45.08.72.19.79.34s-.23.15-.68.23q-3.85.68-5.21.23a7.37,7.37,0,0,1-2.72-2.6,7.76,7.76,0,0,0-.91-1.25A7.83,7.83,0,0,1,22.26,46H22q-1.36.11.11-.45Q25.88,43.95,26.9,42A15.53,15.53,0,0,0,24.18,39q-.57-.34-.34-.45c.15-.23.6-.19,1.36.11a8,8,0,0,1,1,.91A8.63,8.63,0,0,0,27.58,41a8.38,8.38,0,0,0,1.13-4.42,15.39,15.39,0,0,1-3.74.91q-2,0-.79-.57a3.43,3.43,0,0,0,.57-.11q.91-.23,1.25-.34l.23-4.42-2.72.68q.68,9.74-4.76,13.93a2.81,2.81,0,0,1-1,.57q-.11-.11.45-.57,4.08-4.53,4-11.78a7.23,7.23,0,0,0-.57-3.17c-.08-.23-.08-.38,0-.45.23-.15.64-.07,1.25.23l.68.34,2.72-.57q.34-4.42-.79-6.23A.56.56,0,0,1,25.32,24.46ZM19.54,14.38q-1.47,0-1.47,2.38t1.59,2.49q1.25-.11,1.36-2.49Q20.9,14.5,19.54,14.38ZM26.9,17.1H23.16q.11,2.15,1.59,2.15,1-.11,1.36-1.47h.68q-.34,2.15-2.15,2.15-2.15-.11-2.27-3.06.11-3.06,2.27-3.17T26.9,17.1ZM24.64,14.5q-1.25,0-1.47,1.81h2.95Q26.11,14.5,24.64,14.5Zm-1.25-2.94h.91l1,1.81h-.57Zm5.32-.23v1h-.79v-1ZM28,13.93h.68v5.89H28Z"/><path class="cls-2" d="M46.16,24q2.49,0,3.17,1.36a.89.89,0,0,1-.11.34q-.68,1.25-.91,5.66a2.59,2.59,0,0,0,.91-.23,12.49,12.49,0,0,0,1.25-.23q1-.11,1,.45t-1,1a8.35,8.35,0,0,1-2,.57V36.7q3.06-1.7,2.83-1,.11.11-1.36,1a14,14,0,0,0-1.47.91q0,1.36.11,3.4a15.59,15.59,0,0,1,0,3.85q-.23,2.38-1.36,2.83-.11,0-.91-.91a7.57,7.57,0,0,0-1.59-1.59c-.38-.3-.57-.49-.57-.57s.23-.07.68,0a6.56,6.56,0,0,0,1.81,0q.57-.68.68-6.23-2.83,2-4.87,3.74c-.38.38-.64.57-.79.57a2.82,2.82,0,0,1-2.15-1.81.66.66,0,0,1,.45-.11q2.26-.34,7.36-3.51V33.18a.33.33,0,0,0-.23.11q-1.13.34-2.83.68-3.29-.23-1.93-1a31.9,31.9,0,0,0,5-1.25,21.35,21.35,0,0,0-1-7.14A.56.56,0,0,1,46.16,24Zm4.76-4.3V19a1.77,1.77,0,0,1-1.59.91q-1.93-.11-2-3.17.11-2.94,2-3.06a1.78,1.78,0,0,1,1.59.91V11.32h.68v7.14a3.07,3.07,0,0,0,.11.68v.57Zm0-2.94q0-2.38-1.47-2.38-1.25.11-1.36,2.38,0,2.49,1.25,2.49Q50.91,19.25,50.92,16.76ZM62.13,30.92q3.17.34,2.49,1.59a3.32,3.32,0,0,1-1.13.11q-2.61.23-6.23.68,2.15.91,2,1.59a1.86,1.86,0,0,0-.11.57q0,4,.23,9.17v1.13a3.37,3.37,0,0,1-1.93,2.83q-.23,0-.68-.57a6.71,6.71,0,0,0-1.93-2.15l-.57-.57c0-.15.15-.19.45-.11a5.78,5.78,0,0,0,2.6.23q.57-1.36.34-6.57a15.33,15.33,0,0,0-1-5.44,25.1,25.1,0,0,1-3.62.57,4.44,4.44,0,0,1-1.81-.45q-.34-.34.79-.45a42.56,42.56,0,0,0,8.16-1.7A11.33,11.33,0,0,1,62.13,30.92Zm-5.78-11.1-.11-.68a1.84,1.84,0,0,1-1.59.79q-1.93-.11-2-3.17.11-2.94,2-3.06a1.78,1.78,0,0,1,1.59.91V13.7h.68v4.76a3,3,0,0,0,.11.68v.68Zm-.11-8.27-1,1.81h-.79l-1.13-1.81H54l.79,1.13.79-1.13Zm0,5.21q0-2.26-1.47-2.27t-1.36,2.27q0,2.49,1.36,2.49T56.24,16.76Z"/><path class="cls-2" d="M78.55,26.61q2.38.45,2.83,1.81c-.08.15-.34.27-.79.34a18.83,18.83,0,0,0-4.08,1.7q1.47.57,1.59,1c.07.15,0,.53-.23,1.13q-.34,1.13-.57,2,1.92-.57,3.06-1a1.74,1.74,0,0,1,.68-.23,1.87,1.87,0,0,1,1.7.45c.23.38,0,.68-.57.91a3.52,3.52,0,0,0-.57.11q-2.83.45-4.42.79l-.57,4.19a5.5,5.5,0,0,0,2.72-.79c.15-.15.26-.23.34-.23a6.89,6.89,0,0,1,2.6,1.47,1.79,1.79,0,0,1-.45.68,8.84,8.84,0,0,0-1.47,2.83A.92.92,0,0,1,80.82,45a6.88,6.88,0,0,1-2.83.57q-1.93.23-3.17.45.11,1.47-.45,1.59-.68-.23-1-1.47-.34-3.74-1.47-5.21c-.15-.23-.19-.38-.11-.45s.75-.15,1.81,0h.11a11.51,11.51,0,0,0,1.93-.23L75.95,36l-2.61.79a10.1,10.1,0,0,1-2.6.57,5.51,5.51,0,0,1-2.27-.45q-.68-.57.68-.57A44.55,44.55,0,0,0,76.06,35a14.68,14.68,0,0,0-.34-4.19,13.64,13.64,0,0,1-2.49.68q-1.13.23-1.13.11c0-.07.3-.3.91-.68q4.87-2.49,5.32-4A.36.36,0,0,1,78.55,26.61ZM73.79,11.32v8.5h-.68v-8.5Zm5.32,29.11q-.79-.23-4.87.79.23,2.27.45,3.74,3.4-.45,3.85-.91a4.77,4.77,0,0,0,.68-2.15Q79.46,40.66,79.12,40.43Zm-.68-23.11v-3.4h.68v4.53a3,3,0,0,0,.11.68v.68h-.79V19a1.69,1.69,0,0,1-1.47.91q-1.7,0-1.81-2.38V13.93h.79v3.74q.11,1.59,1.13,1.59Q78.44,19.25,78.44,17.33Zm5.44,2.49v-.68a2.14,2.14,0,0,1-1.7.79q-1.81-.11-1.93-3.17.11-2.94,1.93-3.06a2.05,2.05,0,0,1,1.7.91V13.7h.68v6.12Zm0-3.06q0-2.26-1.59-2.27-1.36,0-1.36,2.27,0,2.49,1.36,2.49T83.88,16.76ZM81,11.55H82l1,1.81H82.4ZM83.76,24.8q1.47-.45,3.17,1.59a.89.89,0,0,1-.11.34,13.21,13.21,0,0,0-.68,3.4c0,.3,0,.79-.11,1.47q-.91,10.65-.45,11.78Q86.14,45,89.09,45q2.83-.23,3.51-1.7a25,25,0,0,0,.68-2.6l.23-.79c.07,0,.15.27.23.79a13.66,13.66,0,0,0,.68,3.51c.23.45.3.76.23.91q-.79,1.47-4.08,1.59-6.12.57-6.46-3.85,0-.57.11-4,.45-7.14.34-11.1a4.69,4.69,0,0,0-.68-2A1.35,1.35,0,0,1,83.76,24.8Zm2.83-8.38v3.4h-.68V14.5a3.3,3.3,0,0,1-.11-.57h.79v.68a1.53,1.53,0,0,1,1.47-.91q1.7,0,1.7,2.38v3.74h-.68V16q0-1.47-1.13-1.47Q86.59,14.5,86.59,16.42Z"/><path class="cls-2" d="M102.9,26.5q.45-.34,1.93,0c.83.23,1.28.49,1.36.79s-.19.42-.57.79A15.18,15.18,0,0,0,103.36,31a5,5,0,0,1-.45.68,11.49,11.49,0,0,1-1.47,1.93,25.85,25.85,0,0,0,3.74-1.47,1.74,1.74,0,0,1,.68-.23q2.26.57,2.38,1.59a.33.33,0,0,1-.11.23q-.68.91-.57,4.3,0,7.36-1.47,7.36c-.15,0-.34-.3-.57-.91s-.42-1.21-.57-1.59a11.07,11.07,0,0,1-3.4.79q-.11,1.59-.57,1.7c-.45-.07-.72-.53-.79-1.36q.11-7.36-1.59-10a.85.85,0,0,1-.11-.34q.11-.34,2.15,0a6.1,6.1,0,0,0,1.13-1.81,4.3,4.3,0,0,1,.45-1.13q1.36-2.72.68-4Q102.79,26.62,102.9,26.5Zm2.49,7q-.23-.23-2.83.45a10.22,10.22,0,0,1-1.7.34q.23,1.47.34,3.62,3.28-1.47,3.62-.23-.45.79-3.51,1,.11,1.81.34,4.08a1.25,1.25,0,0,1,.45-.23,10.84,10.84,0,0,1,2-.57,1.25,1.25,0,0,1,1.13.45.32.32,0,0,0,.23.11q.34-.45.34-4.76Q105.74,34,105.4,33.52Zm4.76-13.82V19a1.77,1.77,0,0,1-1.59.91q-1.93-.11-2-3.17.11-2.94,2-3.06a2.16,2.16,0,0,1,1.59.91V11.32h.68v7.14a3,3,0,0,0,.11.68v.57Zm0-2.94q0-2.38-1.47-2.38-1.25.11-1.36,2.38,0,2.49,1.25,2.49Q110.15,19.25,110.15,16.76Zm3.06,7.82a3.2,3.2,0,0,1,3.28,1,.89.89,0,0,1-.11.34,10.62,10.62,0,0,0-2.15,3.28l-1.25,2-.68,1a8.91,8.91,0,0,0,5.32-1.36c.15-.15.26-.23.34-.23q2.94.79,3.17,1.81a1.17,1.17,0,0,1-.23.45,3.61,3.61,0,0,0-.91,2.49v1.81a29.32,29.32,0,0,1-.79,7.48q-1.25,3.17-3.28,3.63c-.08,0-.23-.23-.45-.68A17.1,17.1,0,0,0,113.67,45c-.38-.38-.57-.6-.57-.68s.23-.11.68.11a1.9,1.9,0,0,1,.45.11q1.7.68,2.15.45,1.36-.91,1.93-6.57.23-4.08-.45-5.55-.34-.34-2.38,0-2.83.57-3.4-.23a19,19,0,0,1-1.93,2.27,6.09,6.09,0,0,1-1.7,1.59q-.68.23.11-.91a20.69,20.69,0,0,0,3.51-5.66q1.81-3.62,1.13-4.87C113.14,24.8,113.14,24.65,113.21,24.58Zm-2.49,11.67a3.35,3.35,0,0,1,3.06.91q1.13,2-.34,2.72Q112.08,39.3,110.72,36.24Zm.57-24.69h.91l1,1.81h-.57Zm1.7,8.27h-.79V13.93H113Z"/><path class="cls-2" d="M127.37,33.3q-.57-.91,2.83.11,1.47,1.25.45,2.61-.91.23-2.83-2.15C127.6,33.56,127.44,33.37,127.37,33.3Zm5.78,1.7a1.34,1.34,0,0,1,.79-.79q.34.11,0,.79a77.27,77.27,0,0,0-3.85,10.19c-.23.91-.38,1.36-.45,1.36a4.2,4.2,0,0,1-2-3.28.74.74,0,0,1,.34-.34Q129.41,41.68,133.15,35Zm-3.28-7.93Q129,25.6,132.69,27q1.58,1.47.23,2.72-.57.23-2.49-1.93A7,7,0,0,0,129.86,27.07Zm13.71,0q.68-.79,3.06,1.36.68.57-.45,1.47a1.28,1.28,0,0,1-.45.45,10.12,10.12,0,0,0-1.47,3.06A19.46,19.46,0,0,1,142,38.62a25.11,25.11,0,0,0,4.42,3.62,17.54,17.54,0,0,0,5.21,1.93q1.58.34,1.25.57a18.31,18.31,0,0,1-4.3.57,7.7,7.7,0,0,1-3.17-.23q-.79-.23-4.42-5.21a15,15,0,0,1-3.28,2.83,16.74,16.74,0,0,1-4,1.59q-3.06.57-1.47-.34a19.41,19.41,0,0,0,7.82-5.55q-3.17-5.21-4.64-6-.68-.57-.45-.79a3.32,3.32,0,0,1,1.59.23q1.58,1,4.3,5.44a21.34,21.34,0,0,0,2.49-7.93q-.34-.23-3.28.57-3.29.91-3.85.57a5.48,5.48,0,0,1-1.47-.79q0-.34,1.25-.45A17.42,17.42,0,0,0,143.57,27.07ZM132.69,11.32v3.28a1.53,1.53,0,0,1,1.47-.91q1.7,0,1.7,2.38v3.74h-.68V16q0-1.47-1.25-1.47t-1.25,1.93v3.4H132v-8.5Zm7.93,8.5v-.68a2.14,2.14,0,0,1-1.7.79q-1.81-.11-1.93-3.17.11-2.94,1.93-3.06a2.05,2.05,0,0,1,1.7.91V13.7h.68v6.12Zm0-3.06q0-2.26-1.59-2.27-1.36,0-1.36,2.27,0,2.49,1.36,2.49T140.62,16.76Zm-2.83-5.21h.91l1,1.81h-.57Zm5.55,4.87v3.4h-.68V14.5a3.35,3.35,0,0,1-.11-.57h.79v.68a1.53,1.53,0,0,1,1.47-.91q1.7,0,1.81,2.38v3.74h-.79V16q0-1.47-1.13-1.47Q143.34,14.5,143.34,16.42Z"/><path class="cls-2" d="M170.07,30.92q2.49.23,2.94,2.15A14.09,14.09,0,0,0,169.17,36a2.58,2.58,0,0,1,.79,1.36q1.13-.11,3.62-.57a18.49,18.49,0,0,1,3.85-.45q3.4.68,2.72,1.93a3,3,0,0,1-2.15.23,36.87,36.87,0,0,0-7.7-.11,19.62,19.62,0,0,1,.45,6.68q-.45,3.62-2.15,4.42-.34.23-1.25-.79a6.71,6.71,0,0,0-1.47-1.47,3.53,3.53,0,0,1-1.13-.79c0-.15.3-.15.91,0H166a4.48,4.48,0,0,0,2,0q.79-.23,1-2.72a18.64,18.64,0,0,0-.23-5.21,78.13,78.13,0,0,0-9.29,1.81,5.7,5.7,0,0,1-.68.11,3,3,0,0,1-1.7-.79q-.79-.57-.23-.68,3.85-.23,11.67-1.36a2.51,2.51,0,0,0-1.25-1.7q-.68-.45-.23-.68a3.55,3.55,0,0,1,1.47.45q1.92-3.17,1.47-3.51t-5.44,1.93q-1.81-.68-1.59-1.47A19.18,19.18,0,0,0,170.07,30.92Zm5-4.53q.79-.23,2.83,1.25,1.47,1.36.79,1.7a8.16,8.16,0,0,1-.91.34,10,10,0,0,0-2.38.68c-.68.3-1.06.42-1.13.34s0-.38.34-.91q.79-1.58.34-1.93-1.59-.23-12.91,1.93-.57,2.61-1.7,3.28-.79.45-1.13.23T159,32.05a2.52,2.52,0,0,1,.34-.68,9.6,9.6,0,0,0,1.36-3.28q0-.91.45-.79a3.18,3.18,0,0,1,1,1.47Q173.24,27.07,175.06,26.39Zm-9.63-6.57V19l2.72-4.42h-2.72v-.68h3.62v.68L166.33,19h2.72v.79Zm1.36,3.62a3.51,3.51,0,0,1,3.17,1q.57,2.49-1,2Q165.65,23.9,166.79,23.44Zm2.38-11.89h.91l1,1.81h-.57Zm1.59,8.27h-.68V13.93h.68Z"/><path class="cls-2" d="M193,28.43A3.56,3.56,0,0,1,195.56,30a.92.92,0,0,1-.34.57,5.94,5.94,0,0,0-.91,1.47,12.19,12.19,0,0,0-.57,1.47q-.91,2.38-1.47,3.51a12.71,12.71,0,0,1,2.49,3.06q.91,2.38-.23,2.6-.45.11-1.13-1.13a23.71,23.71,0,0,0-1.93-3.06,15.67,15.67,0,0,1-5.89,5.89l-1,.34q-.11-.11.57-.68a26.09,26.09,0,0,0,5.44-6.57q-.91-1.13-2.38-2.83-1.81-2-1.36-2.15.68-.23,4.42,3.51a19.86,19.86,0,0,0,1.59-5.66q-.91.23-2.27.68a13.59,13.59,0,0,1-2.27.45,5.51,5.51,0,0,1-1.93-.45q-.34-.23.68-.34,3.85-.45,5.55-2C192.76,28.5,192.88,28.43,193,28.43Zm1.36-8.72V19a2,2,0,0,1-1.59.91q-1.93-.11-2-3.17.11-2.94,2-3.06a2.16,2.16,0,0,1,1.59.91V11.32H195v7.14a6.31,6.31,0,0,0,.11,1.25Zm0-2.94q-.11-2.26-1.47-2.38t-1.47,2.38q0,2.49,1.36,2.49T194.31,16.76Zm10.31,8.72a1.88,1.88,0,0,1-.11.57,36.16,36.16,0,0,0-.45,5.66q.9-.23,2.15-.45a9.62,9.62,0,0,1,2.94-.45,2.2,2.2,0,0,1,1.7,1.13q.23.68-.91.79h-.79a35,35,0,0,0-5.1.11q.23,4.42.45,8.72.11,2.49.11,3.51-.23,3.28-2.27,4.08c-.15,0-.42-.27-.79-.79a12.84,12.84,0,0,0-2-2.72,2.25,2.25,0,0,1-.45-.68c0-.07.23,0,.68.11l.91.34q1.25.68,1.59.45.91-.34.57-12.91-2.95.45-5,.91a5.44,5.44,0,0,1-1.59.34,2.89,2.89,0,0,1-1.47-.79c-.15-.23.11-.38.79-.45q2.15-.23,7.25-1-.11-5.44-1.59-7.36a.56.56,0,0,1-.11-.57Q202.92,23.56,204.62,25.48Zm-8.49,10.65a4,4,0,0,1,3.17,1.13q1,2.38-.34,2.61A7.68,7.68,0,0,1,196.12,36.13Zm3.4-18.8v-3.4h.79v5.89h-.68l-.11-.79a1.53,1.53,0,0,1-1.47.91q-1.7,0-1.7-2.38V13.93H197v3.74q0,1.59,1.25,1.59T199.52,17.33Zm1.25-5.78h.91l1,1.81H202Zm1.59,8.27h-.68V13.93h.68Z"/><path class="cls-2" d="M216.06,28.65q.57-.68,2.38.91.45.45.11,1.59a6.34,6.34,0,0,0-.23,1.47q0,16-1.36,14.27a4.84,4.84,0,0,1-1-3.17.33.33,0,0,1,.11-.23q.68-1.25.91-8.95a13.27,13.27,0,0,0-.68-5.21A1.71,1.71,0,0,1,216.06,28.65Zm2.6-3.06q-.57-.57.45-.57a5.36,5.36,0,0,1,2.38.45q1.81,1.7.11,2.61-.57,0-1.93-1.47Zm0-11.67h.79L221,18.57l1.59-4.64h.68l-2.6,8h-.79l.68-2.27ZM228,28.77q.45-.45,2.27.79.45.34-.45.91a6.84,6.84,0,0,0-.57.45,24.92,24.92,0,0,1-2.38,2.49l1-.34a2.51,2.51,0,0,1,3.06.79q.11.34-.79,1.36a6.64,6.64,0,0,0-.79.91q.45.57.23.79t-2.27.45h-.57q.68.45.68.91a3.16,3.16,0,0,1-.11.68,4,4,0,0,0-.34,1.59Q227,42,228.86,42q1.58,0,2-.57a4.18,4.18,0,0,0,.68-1.7q.45-1.58.57-.23a8.11,8.11,0,0,0,.68,2.38c.07.23.07.38,0,.45a5.23,5.23,0,0,1-3.51,1.36,3,3,0,0,1-2.6-.79q-1.25-.91-.68-5.44c0-.07-.08-.07-.23,0q-.68.11-1.7.34l.23.23a.93.93,0,0,1,.34.57c0,.08-.08.19-.23.34a6,6,0,0,0-.68,1,7.92,7.92,0,0,1-4.53,4.19q-.91.23.11-.57a9.2,9.2,0,0,0,3.85-5.55h-.11q-.57,1-1.13-1.81a4.56,4.56,0,0,0-.68-1.59c-.15-.38-.27-.64-.34-.79s.26-.26,1-.11a3.29,3.29,0,0,0,.79.11,17.08,17.08,0,0,0,3.06-.34l1.36-2.27a3.13,3.13,0,0,0,.57-1.25,1.66,1.66,0,0,0,.11-1A.33.33,0,0,1,228,28.77Zm-3.62,1.93q1,1.13-.23,1.81-.68.11-2-1.7l-.11-.11Q221.27,29.33,224.33,30.69Zm4,3.4q-.23-.34-4.64.57a3.07,3.07,0,0,1-.68.11l.45,2.38a28.68,28.68,0,0,0,4-.68A3.22,3.22,0,0,0,228.29,34.09Zm-.91-16.76v-3.4h.68v4.53a8.19,8.19,0,0,0,.11,1.36h-.79V19a1.69,1.69,0,0,1-1.47.91q-1.7,0-1.7-2.38V13.93h.57v3.74q.11,1.47,1.25,1.59Q227.27,19.14,227.39,17.33Zm6,7.93a4.93,4.93,0,0,1,3.17,1.59.57.57,0,0,1-.11.57q-.79,1.59-.68,5.55a43.4,43.4,0,0,0,.34,4.76q.34,3.4.34,5.66.34,4.08-1.59,5.44c-.15.23-.45,0-.91-.68a13.89,13.89,0,0,0-2.27-2.38q-.91-.79.91-.45a4.24,4.24,0,0,0,1.59.11c.15-.07.26-.57.34-1.47V37.71q-.23-8.61-.68-10.42-1-.68-4.76,0a2.93,2.93,0,0,1-.91.11q-2.38.68-3.28,0c-.45-.23-.61-.41-.45-.57s.41-.26,1-.34A23.44,23.44,0,0,0,233.39,25.26Zm.23-8.16h-3.74q.11,2.15,1.59,2.15,1-.11,1.36-1.47h.79q-.57,2.15-2.27,2.15-2-.11-2.15-3.06.11-3.06,2.15-3.17Q233.61,13.7,233.61,17.1Zm-2.27-2.61q-1.25,0-1.47,1.81h2.95Q232.82,14.5,231.35,14.5Zm-1.25-2.94H231l1,1.81h-.57Z"/><path class="cls-2" d="M247.66,32.62a2.21,2.21,0,0,1,2.72,1.25q-1.25.79-1.59,3.28v.34a11.9,11.9,0,0,0-.11,1.25q0,1-.11,3.28.23.11,1.7-1a1.29,1.29,0,0,0,.34-.23q1.25-.79,1.47-.68.23.34-.91,1.36a22,22,0,0,0-4,4.64q-.34.57-.91-.68-.57-1.7-.23-2,1.58-1.13,1.47-8.61Q244.94,36,244,36.36q-.45.11-1.59-.68c-.53-.53-.61-.79-.23-.79Q246.19,34.54,247.66,32.62Zm.34-6.23a5.43,5.43,0,0,1,2.6,1,2.37,2.37,0,0,1,.34,2.15q-.34.79-1.25,0Q245.62,26.05,248,26.39Zm5.89-6.68-.11-.68a1.77,1.77,0,0,1-1.59.91q-1.93-.11-2-3.17.11-2.94,2-3.06a1.78,1.78,0,0,1,1.59.91V11.32h.79v8.38Zm-.11-2.94q0-2.38-1.47-2.38-1.25.11-1.36,2.38,0,2.49,1.36,2.49T253.78,16.76Zm5,17.78q2,.57,1.7,1.47-.45.45-1,3.51a12.81,12.81,0,0,1-.23,1.47q.45-.11,1.25-.23,3.62-.68,4.42-.79,2.6.11,2.38,1.47a4.53,4.53,0,0,1-1.25.11,48.47,48.47,0,0,0-7,.34q-1.25,5.21-6,6.34-1.81.45-1.93.23t1.7-1q3.4-1.13,4.87-5.32-4.19.79-4.64.91-1.93.11-1.93-.91a19.76,19.76,0,0,0,2.15-.34q3.28-.34,4.53-.57.79-4.76.34-6.12c-.08-.3,0-.49.11-.57S258.46,34.39,258.76,34.54Zm-.45-10.76q2.26.68,2.15,1.59a29.94,29.94,0,0,0-.68,3.17,13.29,13.29,0,0,1,2-.57H262q1.7,0,1.47.91-.23.34-2.83.91a7.51,7.51,0,0,0-1,.23l-.23,2.38a16.21,16.21,0,0,0,4.64-.91q.68-.11,2.6,1.13,1.36,1,.68,1.36a2.84,2.84,0,0,1-1.13.34,12.87,12.87,0,0,0-2.38.91q-1,.68-1.25.57t.34-.91q.79-1.13.45-1.81-.11-.23-5,.57-2.95.45-4.3.57-2.15-.11-1.59-1,1.13,0,5.55-.57l.11-2.38q-3.63.45-3.29-.68l2.27-.45a7.14,7.14,0,0,0,1.13-.23q.11-3.85-.68-4.19a.58.58,0,0,1-.23-.79Q257.63,23.56,258.31,23.78Zm-5.1,14.27a2.47,2.47,0,0,1,1.93.91q.68,1.13,0,1.59-.57.23-1.59-.91T253.21,38.05Zm1.25-2.94a3,3,0,0,1,2,1,.89.89,0,0,1-.11,1.25q-.34.45-1-.11Q253.21,35.22,254.46,35.11Zm4.64-17.78v-3.4h.68v4.53a8.19,8.19,0,0,0,.11,1.36h-.79V19a1.53,1.53,0,0,1-1.47.91q-1.7,0-1.7-2.38V13.93h.68v3.74q0,1.59,1.25,1.59T259.1,17.33Zm-.91-4h-1l1.36-1.81h.57Zm2.27,30.36a18.9,18.9,0,0,1,3.74,2.15,2.88,2.88,0,0,1,.79,2.49q-.34,1.36-1.36.23Q257.4,42.25,260.46,43.72Z"/><path class="cls-2" d="M276.88,26.5q.45-.34,1.93,0c.83.23,1.28.49,1.36.79s-.19.42-.57.79A15.18,15.18,0,0,0,277.34,31a5,5,0,0,1-.45.68,11.49,11.49,0,0,1-1.47,1.93,25.85,25.85,0,0,0,3.74-1.47,1.74,1.74,0,0,1,.68-.23q2.26.57,2.38,1.59a.33.33,0,0,1-.11.23q-.68.91-.57,4.3,0,7.36-1.47,7.36c-.15,0-.34-.3-.57-.91s-.42-1.21-.57-1.59a11.07,11.07,0,0,1-3.4.79q-.11,1.59-.57,1.7c-.45-.07-.72-.53-.79-1.36q.11-7.36-1.59-10a.85.85,0,0,1-.11-.34q.11-.34,2.15,0a6.1,6.1,0,0,0,1.13-1.81,4.3,4.3,0,0,1,.45-1.13q1.36-2.72.68-4Q276.77,26.62,276.88,26.5Zm2.49,7q-.23-.23-2.83.45a10.22,10.22,0,0,1-1.7.34q.23,1.47.34,3.62,3.28-1.47,3.62-.23-.45.79-3.51,1,.11,1.81.34,4.08a1.25,1.25,0,0,1,.45-.23,10.84,10.84,0,0,1,2-.57,1.25,1.25,0,0,1,1.13.45.32.32,0,0,0,.23.11q.34-.45.34-4.76Q279.71,34,279.37,33.52Zm4.76-13.82V19a1.77,1.77,0,0,1-1.59.91q-1.93-.11-2-3.17.11-2.94,2-3.06a2.16,2.16,0,0,1,1.59.91V11.32h.68v7.14a3,3,0,0,0,.11.68v.57Zm0-2.94q0-2.38-1.47-2.38-1.25.11-1.36,2.38,0,2.49,1.25,2.49Q284.13,19.25,284.13,16.76Zm3.06,7.82a3.2,3.2,0,0,1,3.28,1,.89.89,0,0,1-.11.34,10.62,10.62,0,0,0-2.15,3.28l-1.25,2-.68,1a8.91,8.91,0,0,0,5.32-1.36c.15-.15.26-.23.34-.23q2.94.79,3.17,1.81a1.17,1.17,0,0,1-.23.45,3.61,3.61,0,0,0-.91,2.49v1.81a29.32,29.32,0,0,1-.79,7.48q-1.25,3.17-3.28,3.63c-.08,0-.23-.23-.45-.68A17.1,17.1,0,0,0,287.64,45c-.38-.38-.57-.6-.57-.68s.23-.11.68.11a1.9,1.9,0,0,1,.45.11q1.7.68,2.15.45,1.36-.91,1.93-6.57.23-4.08-.45-5.55-.34-.34-2.38,0-2.83.57-3.4-.23a19,19,0,0,1-1.93,2.27,6.09,6.09,0,0,1-1.7,1.59q-.68.23.11-.91a20.69,20.69,0,0,0,3.51-5.66q1.81-3.62,1.13-4.87C287.11,24.8,287.11,24.65,287.19,24.58ZM284.7,36.24a3.35,3.35,0,0,1,3.06.91q1.13,2-.34,2.72Q286.06,39.3,284.7,36.24Zm.57-24.69h.91l1,1.81h-.57Zm1.7,8.27h-.79V13.93H287Z"/><path class="cls-2" d="M308.6,31.15a2.67,2.67,0,0,1,1.93.57q.23.23.11,1.13v.23q1.36-.34,2.94-.79a5.11,5.11,0,0,1,1-.23q1.7.34,1.93,1.13a7.61,7.61,0,0,1-1.93.23q-2.61.23-4.19.45a54.92,54.92,0,0,0-7.59,1.59A3.61,3.61,0,0,1,300.9,35q-1.13-.57-.23-.57,3.06-.23,9.29-1.25Q307.92,31.49,308.6,31.15Zm-4.19,10.53q.23-.79.57-.91c.15-.07.3.11.45.57a4.49,4.49,0,0,1-.91,4q-.45.57-.79.11a1.55,1.55,0,0,1-.34-1.36,6.22,6.22,0,0,1,.57-1.47A1.67,1.67,0,0,0,304.41,41.68Zm7.7-17.56q2.6,0,3.4,1.81a5.78,5.78,0,0,0-1.7,2.61q-1.25,3.4-2.27,1.81a22.23,22.23,0,0,0-3.74.57q-.34.79-.57.68a5,5,0,0,1-.45-1.13q-.91-3.28-2-4.3l-.11-.23q-1.25-1,2-.57A15,15,0,0,0,312.11,24.12Zm-7.48-10.19h.79L307,18.57l1.59-4.64h.79l-2.72,8h-.79l.68-2.27ZM312,35a2.14,2.14,0,0,1,2.38,1.59,2.64,2.64,0,0,0-1.47,1.7q.57.34.45.57-.34.11-3.06.57c.23,0,0,0-.57.11q1,.68,1,.91V42q.11,2.27.11,3.17a2.33,2.33,0,0,1-1.7,2c-.15.07-.3-.11-.45-.57a8.52,8.52,0,0,0-.91-1.47,2.47,2.47,0,0,1-.34-.68c0-.07.19-.07.57,0q1,.23,1.25,0a4.7,4.7,0,0,0,.11-2.49,5.18,5.18,0,0,0-.57-2.38l-1.25.23c0,.45-.11.72-.34.79s-.42-.23-.57-.68a25.4,25.4,0,0,0-1.25-3.17l-.11-.11q-1-1,1.59-.34A11.35,11.35,0,0,0,312,35Zm.45-9.63q-.91-.23-5.66.79l.34,1.7a9.23,9.23,0,0,0,1.81-.57q2-.68,2.38,0-.34.79-4.08,1l.45,1.93a20.46,20.46,0,0,1,3.17-.68,1.94,1.94,0,0,1,.45.11c.23.15.38.19.45.11a14,14,0,0,0,.79-2.72Q312.79,25.6,312.45,25.37ZM312,36.24q-.11-.23-5,.68,0,.11.45,2.27a19.7,19.7,0,0,0,4-.91Q312.22,36.7,312,36.24Zm-.11-24.69L311,13.36h-.79l-1-1.81h.57l.79,1.13.91-1.13Zm-1,8.27h-.68V13.93h.68Zm12.35,17.67h.11q2.26,1.59,1.7,1.93a8,8,0,0,0-1.25,1.47Q318.9,47.34,313,49.72q-1.59.68-1.47.34a6.14,6.14,0,0,1,1.81-1.47q7.59-4.87,8.95-10.42v-.23Q322.07,37,323.21,37.49Zm-10.76,3.4a3.48,3.48,0,0,1,2.38.45,1.56,1.56,0,0,1,.57,1.47c-.15.61-.45.76-.91.45Q311.43,40.89,312.45,40.89ZM313,16.42v3.4h-.68V14.5a3.3,3.3,0,0,1-.11-.57h.68l.11.68a1.53,1.53,0,0,1,1.47-.91q1.7,0,1.7,2.38v3.74h-.68V16q0-1.47-1.25-1.47T313,16.42Zm9.74,15q1.81,1.36,1.13,1.93a6.75,6.75,0,0,0-1.47,1.36,19.59,19.59,0,0,1-4.64,4.19c-.68.45-1.1.61-1.25.45s.19-.6.79-1.13q4.08-3.85,4.53-6.34v-.11Q321.74,30.92,322.76,31.37Zm-1.25-6.57q-.11-.91,1.13-.34,1.92,1.7,1.25,2a6.91,6.91,0,0,0-1.59,1.7,22.7,22.7,0,0,1-3.17,3.51q-1.7,1.36-1.93,1.25t1.13-1.81A13.12,13.12,0,0,0,321.51,24.8Zm-2-11.1a1.89,1.89,0,0,1,1.47.91v-.68h.68V19q.11,2.15-1,2.72a2.5,2.5,0,0,1-1.13.23q-1.93,0-1.93-1.59h.68q.11.79,1.36.79a1.41,1.41,0,0,0,1.36-1.47v-.79a1.73,1.73,0,0,1-1.47.79q-2.15,0-2.15-2.94T319.47,13.7Zm1.47,3.06q-.11-2.15-1.47-2.27-1.36.11-1.47,2.27.11,2.15,1.47,2.27T320.94,16.76Z"/><path class="cls-2" d="M337.71,32.28a18.52,18.52,0,0,0-1.81,4.3q1,.68,1,1a6.79,6.79,0,0,1-2.49.57q-1.25.23-2,.34,0,2.15-.45,2a5,5,0,0,1-.68-2.72v-.45q-.23-3.85-1.13-4.76-1.36-1.36,2.15-.45a3.67,3.67,0,0,0,2.83-1A2.29,2.29,0,0,1,337.71,32.28ZM331,13.93h.91l1.47,2.27,1.36-2.27h.79l-1.81,2.83,1.93,3.06h-.91l-1.47-2.49-1.47,2.49H331v-.23l1.81-2.83Zm3.62,18.58a17.65,17.65,0,0,0-2.27.45,35.75,35.75,0,0,0,.11,4.64,4.8,4.8,0,0,0,2.15-.68,5.29,5.29,0,0,0,.34-2.49Q335,32.62,334.65,32.5Zm2.49-21.18v1h-.79v-1Zm-.68,2.6h.68v5.89h-.68Zm8.72,10.65q2.72,1,2.27,1.7-1.13,1-4.19,4.3-1.81,2-2.6,2.83a7.74,7.74,0,0,1,1.25-.23q7.93-1.36,8.83-1.81,2.83.57,3.17,2.15a2.86,2.86,0,0,0-.91,2q-.11.79-.34,7.25-.34,3.74-2.49,4.64-.34.11-.91-.79a7.26,7.26,0,0,0-1.13-1.59q-.91-.91-.68-1.13c0-.15.41-.11,1.25.11a2.05,2.05,0,0,0,1.47.11q.79-.68,1.13-5.44.11-4.64-.68-5.44-.34-.34-2.38-.11-1.7.11-8.16,1.13.11,4.87.23,9.17,0,2.38-.45,2.72-.68.23-1.13-1.59,0-.11.11-1.59.11-2.15.11-3.28a19,19,0,0,0-.68-5.89v-.11q-.45-1,1.36-.23,4.87-5.44,4.42-8.27Q343.82,24.24,345.18,24.58Zm-3.29-4.76v-.68a2,2,0,0,1-1.59.79q-1.93-.11-2-3.17.11-2.94,2-3.06a2,2,0,0,1,1.59.91V13.7h.68v6.12Zm-.11-8.27-1,1.81H340l-1-1.81h.57l.91,1.13.79-1.13Zm.11,5.21q0-2.15-1.47-2.27T339,16.76q0,2.49,1.36,2.49T341.9,16.76Zm6.8,20.5A11.24,11.24,0,0,0,347.22,40q.57.68.45.91a29.19,29.19,0,0,1-4.19.68q-.11.91-.45.79t-.68-1.25q0-.23-.45-2.49a8.71,8.71,0,0,1-.23-1.25.9.9,0,0,0-.11-.34q-.57-.68,1.7-.23A5.73,5.73,0,0,0,346,35.9l.11-.11Q348.24,36,348.69,37.26Zm-2.61,0q-.23-.23-2.72.34,0,.23.11,3.06l.79-.23a5.56,5.56,0,0,0,1.47-.34A3.66,3.66,0,0,0,346.09,37.26Zm-1.47-20.84v3.4h-.68V15.17a4.62,4.62,0,0,0-.11-1.25h.79v.68a1.53,1.53,0,0,1,1.47-.91q1.7,0,1.7,2.38v3.74h-.68V16q0-1.47-1.13-1.47T344.62,16.42Zm6.46-2.72a1.89,1.89,0,0,1,1.47.91v-.68h.79v.57a3.1,3.1,0,0,0-.11.68V19q.11,2.15-1,2.72a2.51,2.51,0,0,1-1.13.23q-1.93,0-1.93-1.59h.68q.11.79,1.36.79a1.41,1.41,0,0,0,1.36-1.47v-.79a1.74,1.74,0,0,1-1.47.79q-2-.11-2.15-2.94Q349,13.82,351.07,13.7Zm1.47,3.06q-.11-2.15-1.47-2.27-1.25.11-1.36,2.27.11,2.15,1.36,2.27T352.55,16.76Z"/></g></g></svg>