<svg xmlns="http://www.w3.org/2000/svg" viewBox="0 0 191.62 60.52"><defs><style>.cls-1{fill:#ec6545;}.cls-2{fill:#fff;}</style></defs><title>资源 88</title><g id="图层_2" data-name="图层 2"><g id="图层_1-2" data-name="图层 1"><rect class="cls-1" width="191.62" height="60.52" rx="15.39" ry="15.39"/><path class="cls-2" d="M16.94,24.58q2.38.57,2,1.7-.91,1.13-1,5.32a3.59,3.59,0,0,1,.79-.23,5.4,5.4,0,0,1,1.47-.23q1.58,0,1.25.68t-3.17,1.36a.87.87,0,0,1-.34.11,15.72,15.72,0,0,0-.11,2.95,4.45,4.45,0,0,1,2,.45,1.85,1.85,0,0,1,.68,1.81q-.34,1.13-1,.23a14.66,14.66,0,0,0-1.7-1.93q0,7.14-.11,8.72-.11,2.72-.79,2.95-.91-.34-1.13-2.83a1.85,1.85,0,0,1,.11-.57A47.77,47.77,0,0,0,16.82,36a33.58,33.58,0,0,1-5.32,7.14q-1.13,1-1.47.79-.11-.23.79-1.36a41.19,41.19,0,0,0,5.44-8.83,14.43,14.43,0,0,1-3.51.45q-2.15-.34-1.36-.79a8.76,8.76,0,0,1,1.47-.34,29.08,29.08,0,0,0,4.08-1.13V30.47q-.11-4.19-.79-5.1-.45-.57-.23-.68T16.94,24.58ZM17,19.93a2,2,0,0,1-1.7-.91v.68h-.68V11.32h.68v3.28a2,2,0,0,1,1.59-.91q1.92.11,2,3.06Q18.86,19.82,17,19.93Zm-.23-5.55q-1.36.11-1.47,2.38.11,2.38,1.59,2.49,1.25-.11,1.36-2.49T16.82,14.38Zm4-3.06v1h-.68v-1Zm-.68,2.6h.68v5.89h-.68Zm13,18.46q3.17.34,2.6,1.47a9.77,9.77,0,0,1-1.7.23q-3.06.11-6.34.57,1.36.57,1,1.25a14,14,0,0,0,.11,4q.23,2.95.23,4.64a4.71,4.71,0,0,1-1.59,3.74c-.15.07-.45-.19-.91-.79a17.75,17.75,0,0,0-1.7-1.7q-.79-.57-.79-.79c0-.07.26-.07.79,0a7.8,7.8,0,0,0,1.93,0q.57-.79.57-5.66-.23-3.74-.91-4.42-.91.11-2.72.45a10.22,10.22,0,0,1-1.7.34q-2.49-.79-1.25-1a85.12,85.12,0,0,0,9.85-1.81A23,23,0,0,1,33.13,32.39ZM22.71,38.73q.23-.68.68-.45a2.36,2.36,0,0,1,.45,1.36,5.74,5.74,0,0,1-1.93,4.08q-1,.79-1-1.36a6.42,6.42,0,0,1,.91-1.81A6.47,6.47,0,0,0,22.71,38.73Zm2.83-18.92v-.68a1.84,1.84,0,0,1-1.59.79q-1.93-.11-2-3.17.11-2.94,2-3.06a2.16,2.16,0,0,1,1.59.91V13.7h.68v4.76a8.24,8.24,0,0,0,.11,1.36Zm0-3.06q0-2.15-1.47-2.27T22.6,16.76q0,2.49,1.36,2.49T25.54,16.76Zm-2.83-4.19v-.79H25.2v.79Zm7.48,14.84q2.15-.11,2.15.79-1,1.13-6.23,2-3.17-.34-2.27-1.13a22.77,22.77,0,0,0,4.64-1.25A11.51,11.51,0,0,1,30.19,27.41ZM29.51,13.7q2.15.11,2.38,3.17-.23,2.95-2.38,3.06-2.15-.11-2.27-3.06Q27.35,13.82,29.51,13.7Zm1.59,3.17Q31,14.61,29.51,14.5q-1.47.11-1.59,2.38.11,2.27,1.59,2.38Q31,19.14,31.09,16.87Zm.23,21.63a4.77,4.77,0,0,1,3.51,1.7,2.65,2.65,0,0,1,.68,2.6q-.57.91-1.81-.23Q29.62,38.17,31.32,38.51Z"/><path class="cls-2" d="M42.19,42.36q1,.11.79,2.83-.57,2.72-1.7,3.06-1.13-.11-.91-2A17.24,17.24,0,0,0,42,42.81C42,42.51,42.12,42.36,42.19,42.36Zm4.87-22.65L47,19a1.77,1.77,0,0,1-1.59.91q-1.93-.11-2-3.17.11-2.94,2-3.06a2.16,2.16,0,0,1,1.59.91V11.32h.79v8.38ZM47,16.76q0-2.38-1.47-2.38-1.25.11-1.36,2.38,0,2.49,1.25,2.49Q47,19.25,47,16.76Zm2.6,7.93q.23-.57,1.7-.11t1.81,1.25a3.39,3.39,0,0,1-.11.79,11.57,11.57,0,0,0-.45,2.83,20.32,20.32,0,0,0,2.61-1,7,7,0,0,1,1.81-.68q1.7-.23,2.15.57.11.68-1.59,1.25a14.65,14.65,0,0,1-5,.68v4.53a17.89,17.89,0,0,0,3.06-1,1.1,1.1,0,0,1,.57-.23q2.94.91,3.17,1.81c0,.08-.15.23-.45.45a4.49,4.49,0,0,0-1.93,2.6q.91.79.68,1.36a8.85,8.85,0,0,1-2.27.34l-6.8.91q-.11.91-.68.79t-.79-1.36a19.54,19.54,0,0,0-1.47-4.19q-.45-.79-.23-1t.91,0a4.79,4.79,0,0,0,1.25.23l3.29-.34V30.35q0-3.85-1.13-5.21A.37.37,0,0,1,49.56,24.69Zm-2.94,19a3.81,3.81,0,0,1,3.06,1q.79,1.47-.23,2.15Q48,46.66,46.61,43.72Zm8.72-8.27q-.68-.23-7.36,1,.11.68.45,3.51a32.45,32.45,0,0,0,6.23-1,5.57,5.57,0,0,0,.79-2.15Q55.67,35.68,55.33,35.45ZM49.78,11.32v1H49v-1Zm-.68,2.6h.68v5.89H49.1Zm5.44,5.89-.11-.68a1.84,1.84,0,0,1-1.59.79q-1.93-.11-2-3.17.11-2.94,2-3.06a2.16,2.16,0,0,1,1.59.91V13.7h.79v6.12Zm-.11-8.27-1.13,1.81h-.68l-1.13-1.81h.68L53,12.68l.91-1.13Zm0,5.21q0-2.26-1.47-2.27t-1.36,2.27q0,2.49,1.25,2.49Q54.43,19.25,54.43,16.76ZM52.5,42.93a5.24,5.24,0,0,1,3.28,1.47q.91,1.47-.11,2.15A6.4,6.4,0,0,1,52.5,42.93Zm4.76-26.5v3.4h-.79V13.93h.68l.11.68a1.53,1.53,0,0,1,1.47-.91q1.7,0,1.7,2.38v3.74h-.68V16q0-1.47-1.25-1.47T57.26,16.42Zm.79,25.94a7,7,0,0,1,4.76,1.47q2.15,2.61.45,3.28A14,14,0,0,1,58.05,42.36Z"/><path class="cls-2" d="M76.29,32.73a2.73,2.73,0,0,1,2.27,1.59c0,.08-.11.23-.34.45a8.07,8.07,0,0,0-1.13,1.13,13.36,13.36,0,0,0-1.13,1.36,3.23,3.23,0,0,1,.79,2.49,7.11,7.11,0,0,0-.11,1.13q0,7.7-.79,6.8-1-.23-1-2.15a4.73,4.73,0,0,1,.11-.79,62.93,62.93,0,0,0,.45-6.8A22.24,22.24,0,0,1,69.6,42.7a6.61,6.61,0,0,1-1.47.57c-.23-.07,0-.34.57-.79a31,31,0,0,0,5-5q2.38-2.83,2.49-4.42A.46.46,0,0,1,76.29,32.73Zm1.25-7.48q.11.34-.45,1.25-.45.68-.79,1.25a33,33,0,0,0,3.28-.57,6.93,6.93,0,0,0,1-.23,1.59,1.59,0,0,1,1.36.11c.23.23.11.49-.34.79a10,10,0,0,1-3.06.79,7.82,7.82,0,0,1-2.72,0A16.4,16.4,0,0,1,73,31.83a3.3,3.3,0,0,1-1.36.79q-.34,0,.34-.91a23.15,23.15,0,0,0,1.81-2.6c.23-.38.41-.68.57-.91a5.23,5.23,0,0,0,1-3.4.72.72,0,0,1,0-.57A2.79,2.79,0,0,1,77.53,25.26ZM75.83,30a4,4,0,0,1,2.72.34A1.41,1.41,0,0,1,79,32.28Q77.76,32.51,75.83,30Zm3.06-10.19h-.68V14.61h-1v-.68h1V12.68q0-1.47,1.13-1.47a.47.47,0,0,1,.34.11H80V12h-.45q-.68,0-.68.91v1h1v.68h-1Zm8.95,13.37a1,1,0,0,1-.11.45,5.22,5.22,0,0,0-.34,2Q89.31,35.34,91,35a12.44,12.44,0,0,1,1.25-.11q2.72.79,1.59,1.7c-.15,0-.57,0-1.25.11q-2.38,0-5.21.11,0,.57.11,2.27A36.92,36.92,0,0,1,87.84,46q-.45,3.06-1.93,3.17-.11,0-.68-.68a8.93,8.93,0,0,0-2.15-2.27q-.68-.45-.57-.68c0-.07.26,0,.79.11a3.75,3.75,0,0,1,.91.23q1.24.23,1.36.11.79.11.45-9.06a51.32,51.32,0,0,0-6,1.13l-1,.23a3.84,3.84,0,0,1-1.59-.68q-.34-.34.68-.34.34,0,3.85-.57l4-.68a5.26,5.26,0,0,0-.79-3.17c-.23-.45-.27-.72-.11-.79A3.85,3.85,0,0,1,87.84,33.18ZM79.8,39a4.82,4.82,0,0,1,2.83,1.25q.57,1.59-.34,2.27A5.66,5.66,0,0,1,79.8,39ZM87,24.69a2.47,2.47,0,0,1-.34.68,18.33,18.33,0,0,0-1,1.59,15.78,15.78,0,0,0,4.19-.79,1.91,1.91,0,0,1,.45-.11q1.58,0,1.47.68t-2.15.91a17.17,17.17,0,0,1-4.42.11,1.3,1.3,0,0,0-.23.34,10.9,10.9,0,0,1-2.72,2.83,10.48,10.48,0,0,1-1.47.79q-.23,0,.68-1,.68-.91,1.81-2.6c.23-.38.41-.68.57-.91q1.13-1.81.68-2.94a.73.73,0,0,1,0-.57A2.56,2.56,0,0,1,87,24.69Zm-2.83-7.36v-3.4h.57v4.53a3,3,0,0,0,.11.68v.68h-.68V19a1.69,1.69,0,0,1-1.47.91q-1.81,0-1.81-2.38V13.93h.68v3.74q0,1.59,1.25,1.59T84.22,17.33Zm-1-4h-.91l1.25-1.81h.57Zm1.7,16q.45-.45,2.61.45,1.36.91.45,1.7A4.91,4.91,0,0,1,84.9,29.33Z"/><path class="cls-2" d="M119,32.39a3.4,3.4,0,0,1,2.94,1.25q.34,1-2,.91-1.59-.11-5.44,0-3.51.11-6,.34c.83.38,1.21.68,1.13.91s-.15.38-.45.68a17.61,17.61,0,0,0-1.59,2.15,19.51,19.51,0,0,0,4.53-1.13,1.91,1.91,0,0,1,.45-.11,6.61,6.61,0,0,1,3.28,2.15.92.92,0,0,1-.34.57,3.82,3.82,0,0,0-.79,1.81q-.34,3.85-1.47,5.32-1.47,2.49-2.72,2.49-.23,0-.79-.91a9.31,9.31,0,0,0-1.93-2.15q-1-.91,1.47-.34a5.4,5.4,0,0,0,1.93.34,6.74,6.74,0,0,0,1.36-3.51q.57-3.06,0-3.85a10.87,10.87,0,0,0-5,.34,11.41,11.41,0,0,0-1.13.68q-.57.45-.79.34a1.72,1.72,0,0,1-.45-1.7,3.54,3.54,0,0,1,.45-.34q1.81-.91,2-3.62a42.81,42.81,0,0,0-5.89,1.25,9.83,9.83,0,0,1-1.47.23,6.3,6.3,0,0,1-2.15-.79q-.79-.57,0-.68,13-1.13,19.6-2.38A6.29,6.29,0,0,1,119,32.39ZM103.36,11.32v3.28a1.53,1.53,0,0,1,1.47-.91q1.7,0,1.7,2.38v3.74h-.68V16q0-1.47-1.13-1.47-1.36,0-1.36,1.93v3.4h-.68v-8.5Zm9.51,12.8q2.83.57,3.51,1.47c0,.23-.27.57-.79,1a7,7,0,0,0-1.93,2.6q1.36,1.36.11,1.59-.91.11-5.21.45.57,0-1.13.11,0,.91-.57,1.13-.45,0-.68-.91l-.34-1.36q-.23-1.58-.57-3.06A1.8,1.8,0,0,0,104.6,26a.92.92,0,0,1-.34-.57q.11-.45,2.72.23a13.41,13.41,0,0,0,5.44-1.36A1.17,1.17,0,0,1,112.87,24.12Zm-5.78,2.49.34,3.85q4.19-.45,4.42-.79a9.22,9.22,0,0,0,.79-3.62Q111.74,25.82,107.1,26.61Zm4.19-6.8v-.68a1.84,1.84,0,0,1-1.59.79q-1.93-.11-2-3.17.11-2.94,2-3.06a2.16,2.16,0,0,1,1.59.91V13.7H112v4.76a8.19,8.19,0,0,0,.11,1.36Zm0-3.06q0-2.15-1.47-2.27t-1.47,2.27q0,2.49,1.36,2.49T111.29,16.76Zm-2.83-5.21h.91l1,1.81h-.57Zm6.8,2.15q2.15.11,2.38,3.17-.23,2.95-2.38,3.06-2.15-.11-2.27-3.06Q113.1,13.82,115.25,13.7Zm1.59,3.17q-.11-2.26-1.59-2.38-1.47.11-1.59,2.38.11,2.27,1.59,2.38Q116.72,19.14,116.84,16.87Z"/><path class="cls-2" d="M135.07,30.69a1.84,1.84,0,0,1,2.27,1.13q-.34.23-3.62,4.19a3.46,3.46,0,0,1,.23.79,3.69,3.69,0,0,0,1.36.68,8.94,8.94,0,0,0,1.93-2.83q1-.57,1.36,1.25a28.07,28.07,0,0,0-2.83,1.7,3.66,3.66,0,0,1,1.59.57,1.54,1.54,0,0,1,.34,1.7q-.45.57-1.25-.23a8,8,0,0,0-1.13-1.13,15.68,15.68,0,0,0-1.25-1.13,72.21,72.21,0,0,1,0,8.5q0,2.26-.57,2.38-.91-.34-1.36-2.38l.11-.45a16.49,16.49,0,0,0,.68-4.53q.11-2.49.11-4.19a23.88,23.88,0,0,1-6.12,5.44c-.91.53-1.4.68-1.47.45s.3-.72,1.13-1.25a25.5,25.5,0,0,0,7.7-8.83,50.06,50.06,0,0,0-5.66,1.93q-.68.11-1.93-.91-.91-.79,0-.79Q133,32.51,135.07,30.69Zm.91-15h-.68q-.11-1.36-1.25-1.25-1.36.11-1.47,2.38.11,2.27,1.47,2.38,1,0,1.25-1.36H136q-.23,2-1.93,2-2-.11-2.15-3.06.11-2.94,2.15-3.17A1.9,1.9,0,0,1,136,15.74Zm-2.6,9.06a5.54,5.54,0,0,1,3.28,1.13,1.7,1.7,0,0,1,.23,2q-.57.79-1.47,0Q131.34,24.58,133.37,24.8Zm14.72,5.1q.68-.23,2.38.79,1.13.79.57,1.25l-.11.11a3.81,3.81,0,0,0-1.13,2.72q-.91,7.36-1.59,8.72a5.1,5.1,0,0,1-2.94,2.83q-.34,0-.57-1a7.87,7.87,0,0,0-.91-2.38q-.34-.68-.23-.79c.07-.07.34,0,.79.23a1.19,1.19,0,0,0,.45.23q1.13.57,1.25.11,1.24-1.58,1.93-8.38c.07-.53.11-.83.11-.91q.34-2-1.13-1.7-.79.11-3.17.57,1.47,1,1,1.47a4.44,4.44,0,0,0-.79,1.59q-2.83,7.25-6.68,9.4-1.47.79-1.59.57T137,43.94a16.54,16.54,0,0,0,5.66-11.44,11.86,11.86,0,0,0-2.38.45q-1.81-.79-1.13-1.25A19,19,0,0,0,148.1,29.9ZM137.79,11.32v3.28a1.53,1.53,0,0,1,1.47-.91q1.7,0,1.7,2.38v3.74h-.68V16q0-1.47-1.25-1.47t-1.25,1.93v3.4h-.68v-8.5Zm7.82,6v-3.4h.68v4.53a3.07,3.07,0,0,0,.11.68v.68h-.68l-.11-.79a1.53,1.53,0,0,1-1.47.91q-1.7,0-1.7-2.38V13.93h.68v3.74q0,1.59,1.25,1.59T145.61,17.33Zm0-4.76h-2.49v-.79h2.49Z"/><path class="cls-2" d="M162.6,23.44q1.7.79,1.36,1.36a5.11,5.11,0,0,0-1,1.25q-.68.79-1.13,1.36a6.26,6.26,0,0,0,3.51-1.13q2.15.34,2,1.59a21,21,0,0,0-3.51,3.06l-.91.91q1.58-.34,2.38-.57,1.92,0,2.38,1.13-.79,1.13-.57,6.46.11,1.81.11,2.94.11,4.19-1.47,5.1c-.23.07-.57-.23-1-.91a5.12,5.12,0,0,0-.79-1.25l-.11-.11q-.57-.68.34-.45a4,4,0,0,0,1.36,0q.34-.68.34-5.21-.11-6-.45-6.8a12.58,12.58,0,0,0-3.06.45c.68.3,1,.57.91.79a13.68,13.68,0,0,1-.23,1.93q2-.34,2.15.11.57.57-2.15,1.13L162.94,39q2.15-.45,2.38.57.11.23-1.47.45a4.82,4.82,0,0,1-.91.11v1.59q0,3.51-.68,3.28-.57.23-.34-4.76-2.27.34-1.7-.68.45-.11,1.7-.34V36.7q-2.38,0-1.47-.57a.87.87,0,0,0,.34-.11q1.25-.34,1.25-.45v-.45q.11-2-.45-2.38,0-.11-1.36.11l-.45.11q-.11,11.1-2.72,13.59c-.6.68-.94,1-1,.91q-.23-.34.45-1.47l.11-.23a26.5,26.5,0,0,0,1.93-9.85,9,9,0,0,0-.34-3.06q-.34-.57,0-.68a2.85,2.85,0,0,1,1.36.23l2.94-.57A21.8,21.8,0,0,0,164.75,28q-.11-.11-.91.11a10.63,10.63,0,0,1-2.6.11,16.42,16.42,0,0,1-3.06,3.28q-1.13,1-1.47,1-.23-.23.57-1.25,4.53-5.21,4.19-7.48Q161.13,23,162.6,23.44Zm1.13-1.36v-.79H164q.57.11.45-1V13.93h.68V20q.23,2.27-1.25,2Zm1.47-10.76v1h-.79v-1Zm2,0v1h-.79v-1Zm-.68,2.6h.68v5.89h-.68Zm6.8,18.8q1.58.34,1.81,1a13.53,13.53,0,0,1-.23,1.7,7.48,7.48,0,0,1,1-.23q2.15-.91,2.72.23,0,.57-3.74,1.13L174.83,39q4.42-.68,5.21-.68,1.7.34,1.81,1.47a4.34,4.34,0,0,1-1.47.11,45.46,45.46,0,0,0-5.55.11,23.57,23.57,0,0,0-.11,3.51q-.11,3.06-.11,3.74-.57,3.4-1,3.4t-.23-3.51V44.74q.11-2.94.11-4.64a32.36,32.36,0,0,0-4.08.91,3.37,3.37,0,0,1-.57.11q-2-.68-1-1,1-.11,5.66-.79l.11-2.49a8.39,8.39,0,0,1-2.27.11l-.91-.34q-2.61,3.4-1.81,1A5.83,5.83,0,0,0,170,34.43c-.08-.3-.08-.49,0-.57a.9.9,0,0,1,.57-.11q1.47.23,1.25.79a11.73,11.73,0,0,0-1,1.59q.34.23,1.93-.11a2.62,2.62,0,0,1,.91-.23,5.3,5.3,0,0,0-.68-2.38.56.56,0,0,1-.11-.57C172.87,32.69,173.06,32.66,173.36,32.73Zm3.06-7.7q2.38.45,2.61,1.81-1.13.45-1.47,2.6a5.85,5.85,0,0,1-1.7,3.29q-.23.11-.79-.68a2.35,2.35,0,0,0-.68-.91c-.3-.23-.45-.41-.45-.57s.19-.11.57-.11a3.7,3.7,0,0,0,.91-.11q.91-.91.91-3.62-.23-.57-3.85.45l.11.11q1.36.57,1,.91l-.34.68a10,10,0,0,1-3.74,4.3q-1.13.68-1.36.57t.79-1A11.07,11.07,0,0,0,172,27.29a6.28,6.28,0,0,0-1.59.45q-2.27-.57-1.13-.79Q175.4,26,176.42,25Zm-3.62-7.93h-3.74q.11,2,1.7,2.15.91-.11,1.25-1.47h.79q-.57,2.15-2.27,2.15-2-.11-2.15-3.06.11-3.06,2.15-3.17Q172.79,13.7,172.79,17.1Zm-2.27-2.61q-1.25,0-1.47,1.81h3.06Q172,14.5,170.53,14.5ZM172,11.55l-1,1.81h-.79l-1-1.81h.57l.91,1.13.79-1.13Z"/></g></g></svg>